<?xml version="1.0" encoding="UTF-8" standalone="no"?>
<!-- Created with Inkscape (http://www.inkscape.org/) -->

<svg
   xmlns:dc="http://purl.org/dc/elements/1.1/"
   xmlns:cc="http://creativecommons.org/ns#"
   xmlns:rdf="http://www.w3.org/1999/02/22-rdf-syntax-ns#"
   xmlns:svg="http://www.w3.org/2000/svg"
   xmlns="http://www.w3.org/2000/svg"
   xmlns:sodipodi="http://sodipodi.sourceforge.net/DTD/sodipodi-0.dtd"
   xmlns:inkscape="http://www.inkscape.org/namespaces/inkscape"
   width="373.38mm"
   height="84.666672mm"
   viewBox="0 0 1323 300.00002"
   id="svg2"
   version="1.1"
   inkscape:version="0.91 r13725"
   sodipodi:docname="Heavy Industry Logo Vector.svg">
  <defs
     id="defs4" />
  <sodipodi:namedview
     id="base"
     pagecolor="#ffffff"
     bordercolor="#666666"
     borderopacity="0"
     inkscape:pageopacity="0"
     inkscape:pageshadow="2"
     inkscape:zoom="0.7"
     inkscape:cx="675.82771"
     inkscape:cy="231.74672"
     inkscape:document-units="px"
     inkscape:current-layer="layer1"
     showgrid="false"
     showborder="true"
     fit-margin-top="0"
     fit-margin-left="0"
     fit-margin-right="0"
     fit-margin-bottom="0"
     inkscape:window-width="1920"
     inkscape:window-height="955"
     inkscape:window-x="0"
     inkscape:window-y="0"
     inkscape:window-maximized="1" />
  <metadata
     id="metadata7">
    <rdf:RDF>
      <cc:Work
         rdf:about="">
        <dc:format>image/svg+xml</dc:format>
        <dc:type
           rdf:resource="http://purl.org/dc/dcmitype/StillImage" />
        <dc:title></dc:title>
      </cc:Work>
    </rdf:RDF>
  </metadata>
  <g
     inkscape:label="Layer 1"
     inkscape:groupmode="layer"
     id="layer1"
     transform="translate(-14.86039,-884.10045)">
    <g
       id="g3435"
       transform="translate(-63.63961,130.30968)">
      <path
         style="fill:#fefefe"
         d="m 78.5,903.79077 0,-150 661.5,0 661.5,0 0,150 0,150.00003 -661.5,0 -661.5,0 0,-150.00003 z"
         id="path3451"
         inkscape:connector-curvature="0" />
      <path
         style="fill:#dadada"
         d="m 471.82999,1028.3652 c -9.69394,-10.8892 -15.98257,-24.6405 -18.34419,-40.11291 -3.16611,-20.74326 4.13455,-45.09954 18.27328,-60.96285 l 4.90089,-5.49867 8.42002,0 c 4.63278,0 8.42001,0.42597 8.42001,0.94704 0,0.52088 -2.23505,3.89996 -4.96678,7.50908 -5.85836,7.73995 -11.18879,18.48568 -13.6632,27.54388 -2.74842,10.06128 -2.51454,31.0431 0.46208,41.45493 2.55924,8.9519 7.40653,18.6669 12.94233,25.9394 7.33804,9.64 7.64723,8.6057 -2.57247,8.6057 l -9.04199,0 -4.82998,-5.4256 z M 965.5,1033.103 c 0,-0.3783 1.9838,-3.2128 4.40844,-6.299 10.7754,-13.7154 15.52585,-26.6184 16.33456,-44.3673 1.00649,-22.09002 -4.44246,-39.32468 -17.2977,-54.71141 -1.89492,-2.26806 -3.4453,-4.53117 -3.4453,-5.02913 0,-0.49797 3.78724,-0.90539 8.4161,-0.90539 l 8.41609,0 5.67517,6.25 c 7.13796,7.86098 14.75204,23.12639 16.93744,33.95784 4.8883,24.22722 -1.2051,47.19089 -17.78956,67.04219 l -3.96831,4.75 -8.84347,0 c -4.8639,0 -8.84346,-0.3095 -8.84346,-0.6878 z m -286,-15.2334 c -6.51665,-2.0592 -8.43404,-3.0704 -8.21733,-4.3337 0.15547,-0.9063 2.06797,-6.4008 4.25,-12.21 2.18203,-5.80922 3.96733,-11.1944 3.96733,-11.9671 0,-3.41137 -11.58844,-7.33598 -22.25,-7.53531 -1.53374,-0.0287 -1.75,-1.13761 -1.75,-8.9737 0,-4.91754 0.36346,-9.16562 0.80769,-9.44016 2.12079,-1.31073 19.45042,1.35269 24.83202,3.81647 3.11566,1.4264 5.79544,2.46285 5.95507,2.30323 0.15962,-0.15963 1.62511,-3.8786 3.25665,-8.26439 1.63154,-4.3858 3.28056,-8.76167 3.66449,-9.72417 0.6496,-1.62852 -0.57813,-1.75 -17.68641,-1.75 l -18.38446,0 -2.85027,6.54261 c -4.0266,9.24278 -9.31213,17.06022 -17.15834,25.37762 l -6.77905,7.18615 -6.75034,-6.69862 -6.75035,-6.69862 6.06722,-7.04938 c 9.9922,-11.60974 14.5346,-20.13831 16.26684,-30.54172 l 0.72963,-4.38197 -3.47171,0.6513 c -4.7609,0.89315 -5.92712,-0.79869 -5.5511,-8.053 L 632,920.29077 l 12.99342,-0.76358 c 7.14638,-0.41997 13.55888,-0.54659 14.25,-0.28138 0.79921,0.30668 1.25658,2.49551 1.25658,6.01358 l 0,5.53138 30.44098,0 c 16.74254,0 30.66264,0.35864 30.93354,0.79697 0.63078,1.02062 -31.12238,86.32506 -32.69526,87.83536 -0.88203,0.847 -3.3217,0.4554 -9.67926,-1.5535 z m 85.35658,-0.8288 c -0.84775,-2.0625 -2.84979,-6.8915 -4.44897,-10.7311 -1.59919,-3.8396 -2.90761,-7.57684 -2.90761,-8.30502 0,-1.21621 9.71608,-6.21391 12.08053,-6.21391 0.56293,0 1.49412,1.35 2.06931,3 0.5752,1.65 1.37996,3 1.78837,3 1.54189,0 17.30695,-10.00475 23.09231,-14.65472 6.95252,-5.5881 15.52323,-15.91931 20.7599,-25.0242 1.99956,-3.47659 4.22755,-6.32108 4.95109,-6.32108 1.48026,0 11.76411,5.09094 14.62117,7.2381 1.80703,1.35804 1.79618,1.53221 -0.36349,5.83087 -8.15737,16.23668 -19.80594,28.94013 -37.22653,40.59776 -9.64909,6.457 -27.61431,15.3191 -31.07369,15.3284 -1.14275,0 -2.36439,-1.3658 -3.34239,-3.7451 z m 98.8874,1.4736 c -2.54452,-3.2528 -8.32258,-14.7874 -7.81717,-15.6052 0.31529,-0.5102 2.93574,-2.262 5.82322,-3.89309 13.54972,-7.65382 21.88861,-16.98707 27.18141,-30.4226 3.72505,-9.45586 3.105,-9.21618 14.81856,-5.72808 7.84618,2.33645 7.93181,2.5785 4.37718,12.3714 -6.25347,17.22812 -21.20223,33.14767 -40.27659,42.89227 -2.45072,1.252 -3.36177,1.3375 -4.10661,0.3853 z m 41.39432,0.4878 c -0.84353,-1.3889 -1.09342,-11.7314 -0.31317,-12.9614 0.4462,-0.7035 2.80088,-1.25 5.38502,-1.25 l 4.59212,0 -0.66747,-15.75003 c -0.36711,-8.6625 -0.94652,-19.00515 -1.28758,-22.98366 L 912.2271,958.82344 886.11355,958.55711 860,958.29077 l 0,-9.5 0,-9.5 25.79016,-0.26696 25.79017,-0.26697 -0.66572,-7.34642 c -0.36614,-4.04053 -0.27172,-7.58146 0.20984,-7.86873 0.48155,-0.28726 4.92555,-0.68624 9.87555,-0.88661 l 9,-0.36431 0.88415,8.21425 0.88416,8.21425 9.11584,0.28575 9.11585,0.28575 0,9.5 0,9.5 -8.75,0.28893 c -4.8125,0.15892 -8.74294,0.60892 -8.73431,1 0.009,0.39109 0.67891,11.51107 1.4895,24.71107 0.81059,13.2 1.47853,26.11713 1.4843,28.70473 0.0101,4.5429 -0.10125,4.7216 -3.23949,5.1971 -6.01183,0.9111 -26.67536,1.5281 -27.1117,0.8096 z m -388.05558,-8.7606 c -11.86326,-9.5434 -11.54611,-8.4485 -4.64436,-16.03301 l 3.21778,-3.53611 3.46321,2.64153 3.46321,2.64152 1.84737,-2.33238 c 1.01605,-1.28281 9.77127,-12.23238 19.45605,-24.33238 l 17.60868,-22 -24.74733,-0.5 -24.74733,-0.5 0,-9.5 0,-9.5 44.43946,-0.26054 c 24.44171,-0.14329 44.82632,0.12632 45.29915,0.59915 0.47957,0.47957 -6.44914,9.82575 -15.67061,21.13816 l -16.53029,20.27848 1.73114,3.12237 c 3.5982,6.48987 17.39693,18.93445 25.99322,23.44236 4.53086,2.37598 8.23793,4.69175 8.23793,5.14615 0,1.3664 -7.1656,16.0182 -8.12328,16.6101 -0.48858,0.3019 -5.4216,-1.8217 -10.96227,-4.7192 -11.08327,-5.7961 -20.52115,-13.69794 -25.99305,-21.76278 -1.88177,-2.77347 -3.71739,-5.05428 -4.07916,-5.06846 -0.36177,-0.0142 -6.64497,7.39921 -13.96266,16.47424 -7.3177,9.075 -13.61195,16.5 -13.98723,16.5 -0.37528,0 -5.46462,-3.8471 -11.30963,-8.5492 z m 230.63156,-33.19539 -8.28571,-0.33748 0.28571,-9.56636 0.28572,-9.56635 23.42565,0.15692 c 12.88411,0.0863 23.79661,0.38618 24.25,0.66639 1.32126,0.81658 0.99069,16.8251 -0.37565,18.19144 -1.16649,1.16649 -17.51086,1.35454 -39.58572,0.45544 z m 16.76544,-31.10674 c -12.38616,-3.10679 -23.02358,-5.98181 -23.63873,-6.38895 -0.80015,-0.52958 -0.48431,-3.23316 1.10979,-9.5 1.91391,-7.52407 2.50983,-8.73025 4.22451,-8.55064 4.35529,0.45623 47.82751,11.39369 48.68207,12.24825 0.55036,0.55036 0.441,2.82449 -0.27546,5.72771 -3.01754,12.22763 -3.05796,12.31956 -5.37044,12.21363 -1.2163,-0.0557 -12.34559,-2.64322 -24.73174,-5.75 z m 62.65945,3.07648 c -0.31135,-0.50377 -0.86608,-2.79203 -1.23275,-5.08502 -0.46229,-2.89099 -1.00997,-3.89347 -1.78654,-3.27008 -0.61593,0.49444 -3.36988,1.38075 -6.11988,1.96957 -4.10569,0.8791 -5.19818,0.81087 -6.10802,-0.38149 -1.59903,-2.09555 -3.88201,-16.36871 -2.79199,-17.4554 0.49501,-0.49349 3.35223,-1.03349 6.3494,-1.20001 l 5.44938,-0.30275 1.7766,8 c 0.97713,4.4 1.58735,6.29188 1.35605,4.20417 -0.47466,-4.28422 0.79328,-5.21054 8.01159,-5.85305 3.92637,-0.34948 3.9499,-0.33014 5.04726,4.14888 2.39595,9.77949 2.54396,12.85902 0.66543,13.84563 -2.76472,1.45206 -9.99136,2.39111 -10.61653,1.37955 z m 93.63658,-62.73662 c -14.13173,-3.07063 -27.92307,-13.70859 -33.7555,-26.03733 -5.0149,-10.60063 -5.57106,-16.25344 -5.28338,-53.70022 L 882,772.29077 l 14,0 14,0 0.5,36 0.5,36 2.77658,4.72342 c 3.72251,6.33262 9.78218,9.85106 18.11855,10.52023 10.55614,0.84734 18.57586,-3.02906 22.8641,-11.05158 2.17143,-4.06235 2.25624,-5.30606 2.74077,-40.19207 l 0.5,-36 14,0 14,0 0.26313,34.25101 c 0.29254,38.07989 -0.30663,43.77799 -5.77376,54.90832 -9.7003,19.74845 -34.89095,30.22285 -59.71362,24.82923 z m 102.03925,0.50383 c -14.8628,-2.1731 -36.34197,-11.87376 -34.85733,-15.74267 0.28156,-0.73373 3.67253,-5.76093 7.5355,-11.17157 l 7.02353,-9.83752 7.5243,3.77996 c 19.2102,9.65065 38.459,9.02985 38.459,-1.24036 0,-4.88909 -3.5641,-7.17802 -19.084,-12.256 -17.7019,-5.79191 -26.4717,-10.2727 -32.29934,-16.50297 -13.12564,-14.03237 -8.41394,-38.73825 9.21804,-48.33476 8.7863,-4.78214 13.4093,-5.66395 29.7553,-5.67568 11.7813,-0.009 16.7837,0.42234 22.814,1.96462 7.9884,2.04309 19.4553,7.49443 20.2789,9.6405 0.4411,1.14964 -12.5831,21.58629 -14.5196,22.78315 -0.4926,0.30444 -3.3451,-0.77315 -6.3388,-2.39464 -7.6654,-4.15174 -16.801,-6.28798 -24.927,-5.82882 -7.5877,0.42875 -10.8975,2.44867 -10.8975,6.65062 0,4.20062 2.8358,6.05638 14.9226,9.76545 24.7556,7.5967 34.4147,12.6729 39.9148,20.97654 10.7048,16.16134 3.104,40.61764 -15.2327,49.01245 -10.5282,4.81996 -25.2168,6.4693 -39.2897,4.4117 z M 90.5,828.79077 l 0,-57.05644 13.75,0.27822 13.75,0.27822 0.26843,23.25 0.26843,23.25 23.96314,0 23.96314,0 0.26843,-23.25 0.26843,-23.25 14,0 14,0 0,56.5 0,56.5 -14,0 -14,0 -0.2695,-21.75 -0.26951,-21.75 -23.96099,0 -23.96099,0 -0.26951,21.75 -0.2695,21.75 -13.75,0.27822 -13.75,0.27822 0,-57.05644 z m 110.43592,55.69361 c -0.27904,-0.72718 -0.37878,-6.24322 -0.22164,-12.25788 L 201,861.29077 l 44.5,0 44.5,0 0.5,9.5 0.5,9.5 2.64254,-5 c 1.45339,-2.75 13.93986,-26.55265 27.7477,-52.89477 13.80784,-26.34212 25.6113,-48.50462 26.22991,-49.25 1.78402,-2.14962 6.63445,-1.68228 7.94443,0.76545 0.88686,1.6571 0.86324,1.95274 -0.10805,1.35245 -1.30886,-0.80892 2.14344,5.87835 35.89324,69.52687 11.51974,21.725 20.7396,39.8375 20.48859,40.25 -0.25102,0.4125 -7.39121,0.75 -15.8671,0.75 l -15.4107,0 -3.6367,-7.75 c -2.00018,-4.2625 -5.79847,-12.7 -8.44064,-18.75 -2.64217,-6.05 -7.79111,-17.27273 -11.44208,-24.9394 l -6.63814,-13.93939 -5.96063,12.93939 c -6.65063,14.43726 -6.34699,13.76833 -16.3132,35.9394 l -7.19222,16 -59.74683,0.25788 c -48.7949,0.21061 -59.83984,0.0155 -60.2542,-1.06427 z m 209.23481,-12.88672 c -33.53341,-63.94495 -50.62016,-97.49629 -50.20418,-98.58032 0.37528,-0.97797 4.06026,-1.21391 15.66091,-1.00273 l 15.17016,0.27616 12.10119,26.02204 c 6.65565,14.31213 13.38615,28.93713 14.95666,32.5 l 2.85547,6.47796 1.49928,-3.5 c 4.31746,-10.07894 13.03528,-29.40737 20.07111,-44.5 l 7.92499,-17 30.88908,0 30.88908,0 8.38354,14.5 c 4.61094,7.975 9.85149,17.39345 11.64566,20.92989 l 3.26213,6.42989 2.22916,-4.42989 c 1.22604,-2.43644 6.47693,-11.96739 11.66865,-21.17989 l 9.43948,-16.75 15.88443,0 c 8.73644,0 16.07551,0.3375 16.30904,0.75 0.23353,0.4125 -8.95629,16.21726 -20.42182,35.1217 l -20.84642,34.3717 -0.26917,21.6283 -0.26916,21.6283 -14,0 -14,0 -0.5,-22.01736 -0.5,-22.01736 -18.38915,-30.98264 c -10.11403,-17.04045 -18.94123,-31.58127 -19.616,-32.31293 -0.98877,-1.07213 -6.76839,9.21328 -29.78203,53 -34.65764,65.94112 -30.7521,62.16609 -42.04209,40.63718 z m 213.79903,12.97146 c -0.26908,-0.70309 -0.37235,-26.25335 -0.22949,-56.77835 l 0.25973,-55.5 14,0 14,0 0,56.5 0,56.5 -13.7705,0.27835 c -10.46375,0.21151 -13.88799,-0.0286 -14.25974,-1 z m 34,0 c -0.26908,-0.70309 -0.37235,-26.25335 -0.22949,-56.77835 l 0.25973,-55.5 3.5,-0.25233 c 3.23429,-0.23316 6.19501,1.94532 39,28.69605 l 35.5,28.94837 0.5,-28.69605 0.5,-28.69604 14,0 14,0 0,56.5 0,56.5 -3.70583,0 c -3.40674,0 -6.50552,-2.38085 -38.39552,-29.5 -19.07934,-16.225 -35.06746,-29.64775 -35.52917,-29.82833 -0.46171,-0.18059 -0.95873,13.09441 -1.10448,29.5 l -0.265,29.82833 -13.7705,0.27835 c -10.46375,0.21151 -13.88799,-0.0286 -14.25974,-1 z m 113.01122,0.0327 c -0.28397,-0.74 -0.39585,-12.8127 -0.24864,-26.82823 L 771,832.29077 l 14,0 14,0 0.27826,14.38171 0.27826,14.38171 12.72174,-0.5293 c 14.86363,-0.6184 20.16496,-2.17152 26.52692,-7.77155 6.72511,-5.91968 9.16985,-12.29868 9.18361,-23.96257 0.01,-8.24891 -0.3386,-10.22432 -2.64505,-15 -1.46094,-3.025 -4.30749,-7.19355 -6.32566,-9.26345 -7.05253,-7.23326 -6.78826,-7.18086 -39.01808,-7.73655 l -29,-0.5 0,-12 0,-12 29.5,0.0135 c 25.03933,0.0114 30.47194,0.27981 35.92776,1.77485 19.64202,5.38242 32.36911,16.98917 38.72957,35.32028 2.36796,6.82457 2.73813,9.44606 2.73813,19.39139 0,9.94534 -0.37017,12.56683 -2.73813,19.39139 -6.28719,18.11995 -18.77912,29.64666 -38.19185,35.24086 -8.08751,2.33059 -65.15133,3.34999 -65.9845,1.17877 z m 348.21262,0.54927 c -0.3815,-0.38152 -0.6936,-20.41865 -0.6936,-44.52699 l 0,-43.83333 -17.5308,0 -17.5308,0 0.2808,-12.25 0.2808,-12.25 49,0 49,0 0.2808,12.25 0.2808,12.25 -17.5204,0 -17.5204,0 -0.2604,44.25 -0.2604,44.25 -13.5564,0.27696 c -7.456,0.15233 -13.8685,-0.0352 -14.25,-0.41667 z m 67.7762,-0.58194 c -0.2691,-0.70312 -0.3724,-26.25338 -0.2295,-56.77838 l 0.2597,-55.5 33,0 c 32.0571,0 33.2076,0.068 40.2661,2.38058 18.7526,6.14387 29.4887,21.56271 27.9359,40.12066 -0.9138,10.92177 -4.0149,17.52563 -11.8661,25.26931 l -6.8646,6.77054 12.5573,17.63705 c 6.9065,9.70037 12.4198,18.35363 12.2517,19.22945 -0.2612,1.36067 -2.5648,1.63233 -15.8299,1.86672 l -15.5243,0.27431 -11.2594,-16.52431 -11.2594,-16.52431 -12.4289,0 -12.4289,0 -0.2747,16.25 -0.2748,16.25 -13.7705,0.27835 c -10.4637,0.21151 -13.888,-0.0286 -14.2597,-1 z m 64.5302,-58.3124 c 4.9348,-2.86786 7.2054,-7.68545 6.7197,-14.25745 -0.4443,-6.01146 -2.7135,-9.70421 -7.7895,-12.67629 -2.8585,-1.67372 -5.7195,-2.0278 -19.1455,-2.36948 l -15.7847,-0.40171 0,16.20551 0,16.20552 16.25,-0.33604 c 14.1491,-0.2926 16.7025,-0.59901 19.75,-2.37006 z m 66.6936,58.89431 c -0.3815,-0.38149 -0.6936,-10.23372 -0.6936,-21.89384 l 0,-21.20022 -20.4795,-34.35359 c -11.2638,-18.89447 -20.1166,-34.71652 -19.673,-35.16009 0.4435,-0.44358 7.744,-0.68187 16.2231,-0.52953 l 15.4167,0.27698 8.3821,14.5 c 4.6102,7.975 9.8501,17.39345 11.6443,20.92989 l 3.2621,6.42989 2.2292,-4.42989 c 1.226,-2.43644 6.4769,-11.96739 11.6686,-21.17989 l 9.4395,-16.75 15.9434,0 c 12.2943,0 15.9435,0.29321 15.9435,1.28106 0,0.70458 -9.2164,16.51149 -20.4808,35.12646 l -20.4809,33.84539 -0.2691,21.62355 -0.2692,21.62354 -13.5564,0.27696 c -7.456,0.15233 -13.8685,-0.0352 -14.25,-0.41667 z M 200.93487,839.48164 c -0.28138,-0.73328 -0.38184,-5.8012 -0.22324,-11.26205 L 201,818.29077 l 38,0 38,0 0,11 0,11 -37.77676,0.26205 c -30.73997,0.21324 -37.87206,0.0137 -38.28837,-1.07118 z m 0.002,-43.99471 c -0.27958,-0.72858 -0.37976,-6.24577 -0.22262,-12.26043 L 201,772.29077 l 44.5,0 44.5,0 0,12 0,12 -44.27739,0.26042 c -36.01385,0.21182 -44.37225,0.0132 -44.78571,-1.06426 z"
         id="path3449"
         inkscape:connector-curvature="0" />
      <path
         style="fill:#aeaeae"
         d="m 471.16599,1027.0408 c -11.45366,-14.2637 -16.54468,-27.37912 -17.39076,-44.8018 -1.06973,-22.02796 5.31452,-40.47984 19.09827,-55.19823 l 4.91661,-5.25 7.85495,0 c 4.32022,0 7.846,0.3375 7.83508,0.75 -0.0109,0.4125 -2.26531,3.62111 -5.00975,7.13024 -10.62263,13.58248 -16.02072,29.338 -16.14397,47.11976 -0.13625,19.65772 4.69029,34.42173 16.13391,49.35223 2.77182,3.6164 5.03967,6.8166 5.03967,7.1115 0,0.295 -3.8056,0.5363 -8.4569,0.5363 l -8.4569,0 -5.42021,-6.75 z m 494.91828,5.6136 c 0.38626,-0.625 2.96292,-4.1125 5.7259,-7.75 21.4152,-28.19343 20.60684,-69.03854 -1.91351,-96.68747 -2.34284,-2.87637 -3.99053,-5.49896 -3.66152,-5.82797 0.32901,-0.329 4.09726,-0.59819 8.3739,-0.59819 l 7.7757,0 4.80763,5.53995 c 5.91656,6.81779 12.65731,18.84303 15.31783,27.32646 7.9305,25.28708 1.7412,54.73462 -15.54511,73.96122 l -4.65043,5.1724 -8.46635,0 c -6.06681,0 -8.2673,-0.3221 -7.76404,-1.1364 z m -203.93933,-23.479 c -2.61114,-6.3885 -4.60273,-11.76018 -4.42574,-11.93716 0.83004,-0.83004 10.11523,-4.44747 11.41572,-4.44747 0.80802,0 1.94473,1.36435 2.52604,3.03189 l 1.05692,3.03189 6.64106,-3.6208 c 15.52057,-8.46204 27.1455,-19.37843 36.72047,-34.48233 4.27519,-6.74384 6.1445,-8.89812 7.32968,-8.44708 4.3438,1.65311 14.09083,7.73046 14.09023,8.78537 -3.7e-4,0.66058 -2.33982,5.23137 -5.19877,10.1573 -10.78881,18.58897 -30.69246,35.14059 -54.86432,45.62449 -4.96994,2.1556 -9.37545,3.9193 -9.79,3.9193 -0.41456,0 -2.89014,-5.227 -5.50129,-11.6154 z m -82.87012,8.2071 c -3.69885,-1.2148 -7.00798,-2.4916 -7.35362,-2.8372 -0.34564,-0.3456 1.44319,-6.1066 3.97518,-12.8021 2.53199,-6.6955 4.60362,-12.5549 4.60362,-13.02088 0,-0.46598 -1.98185,-2.00868 -4.40411,-3.42822 -3.20635,-1.87905 -6.53789,-2.77439 -12.25,-3.29215 L 656,981.29077 l 0,-8.5 0,-8.5 4.73179,-0.30405 c 6.38086,-0.41001 14.93432,1.27567 21.32968,4.20356 l 5.27309,2.4141 1.04818,-2.6568 c 3.26427,-8.27389 6.11726,-16.57455 6.11726,-17.79793 0,-1.16337 -3.16879,-1.35654 -18.55227,-1.13095 l -18.55226,0.27207 -2.35733,5.80224 c -1.29653,3.19122 -3.86051,8.3035 -5.69774,11.3606 -3.87817,6.4532 -15.31478,20.19823 -17.5055,21.03889 -1.47421,0.5657 -13.3349,-10.12288 -13.3349,-12.01711 0,-0.48289 2.5875,-3.71251 5.75,-7.17693 9.28288,-10.16911 16.25,-23.66719 16.25,-31.48271 0,-2.86248 -0.21488,-3.02498 -4,-3.02498 l -4,0 0,-6.36916 0,-6.36916 3.75,-0.61983 c 2.0625,-0.34091 8.11398,-0.62479 13.44774,-0.63084 l 9.69774,-0.011 0.30226,5.25 0.30226,5.25 29.96521,0.26521 c 16.53141,0.14632 30.37812,0.67812 30.88625,1.18625 0.56137,0.56137 -5.44184,17.93236 -15.37341,44.48478 -12.33552,32.97948 -16.68119,43.53948 -17.88625,43.46398 -0.87549,-0.055 -4.61813,-1.0937 -8.31698,-2.3085 z m 180.46252,-6.4901 -4.26265,-7.8964 5.76265,-3.24079 c 14.66041,-8.24462 24.78718,-19.83433 28.74104,-32.89302 l 1.89747,-6.26694 3.56208,0.57756 c 1.95914,0.31766 6.03707,1.37555 9.06207,2.35088 5.20631,1.67864 5.48135,1.93336 5.15072,4.77021 -1.04532,8.96879 -9.88187,24.05626 -19.43861,33.1893 -7.80191,7.4561 -22.27179,17.3104 -25.41245,17.3066 -0.43981,-6e-4 -2.71786,-3.5544 -5.06232,-7.8974 z m 45.42043,6.4489 C 904.796,1016.3985 904.5,1013.4712 904.5,1010.8362 l 0,-4.791 5.02199,-0.4825 c 2.76209,-0.2654 5.25795,-0.7185 5.54636,-1.007 0.2884,-0.2884 -0.059,-10.81596 -0.77199,-23.39463 L 913,958.29077 l -26.5,-0.5 -26.5,-0.5 -0.28893,-8.75 -0.28894,-8.75 26.03894,0 26.03893,0 0,-7.875 0,-7.875 3.125,-0.625 c 1.71875,-0.34375 5.97555,-0.625 9.45956,-0.625 l 6.33456,0 0.29044,8.25 0.29044,8.25 9.25,0.28753 9.25,0.28752 0,8.96248 0,8.96247 -8.5,0 -8.5,0 0.0349,6.75 c 0.0192,3.7125 0.65911,16.875 1.42202,29.25 0.76291,12.37503 1.0847,22.80513 0.71509,23.17803 -0.36961,0.3729 -7.01352,0.995 -14.76425,1.3823 -12.77561,0.6386 -14.15368,0.5442 -14.75,-1.0098 z m -387.85821,-7.3395 c -5.33524,-4.2411 -9.72274,-8.0753 -9.75,-8.5206 -0.0744,-1.2157 7.22606,-9.69043 8.34775,-9.69043 0.53558,0 2.03551,0.99744 3.33318,2.21654 1.68565,1.58358 2.76231,1.94053 3.77035,1.25 0.77603,-0.5316 10.02646,-11.76654 20.55651,-24.96654 l 19.14555,-24 -25.64014,-0.26696 -25.64013,-0.26696 0.28868,-8.73304 0.28869,-8.73304 44.75,-0.2603 c 24.6125,-0.14316 44.74172,0.0818 44.7316,0.5 -0.0101,0.41817 -7.19752,9.5353 -15.972,20.2603 -8.77449,10.725 -15.96621,20.03654 -15.98161,20.69232 -0.0533,2.27169 9.499,13.7611 15.35614,18.47016 3.23627,2.60191 8.97377,6.35431 12.75,8.33866 3.77623,1.98435 6.87361,4.14589 6.88307,4.80339 0.0344,2.3875 -6.55096,15.6278 -7.7894,15.6612 -2.35335,0.063 -16.67189,-7.6956 -23.04891,-12.4899 C 568.05974,1000.0421 557.5,987.88581 557.5,985.64164 c 0,-2.32409 -2.64986,0.4572 -14.90965,15.64916 -7.32346,9.075 -13.82726,16.4824 -14.45287,16.461 -0.62561,-0.021 -5.50268,-3.509 -10.83792,-7.75 z m 222.62408,-34.54942 c -0.28247,-0.73612 -0.38085,-4.89862 -0.21861,-9.25 L 740,958.29077 l 23.75,-0.2681 23.75,-0.2681 0,9.5181 0,9.5181 -23.53138,0 c -18.73146,0 -23.63615,-0.273 -24.04498,-1.33839 z M 765,945.57612 c -13.2,-3.29395 -24.15786,-6.13854 -24.35081,-6.32131 -0.45876,-0.43459 2.99751,-15.08337 3.90541,-16.55239 0.49344,-0.79839 7.71855,0.55834 24.57218,4.61416 13.13027,3.15981 24.38443,6.02164 25.00923,6.35964 1.35854,0.73493 -2.52859,17.35485 -4.13601,17.68407 -0.55,0.11265 -11.8,-2.49023 -25,-5.78417 z m 62.09624,2.0912 c -1.14809,-3.60722 -2.73063,-14.85008 -2.20909,-15.69396 0.79785,-1.29095 9.65589,-2.54901 10.64569,-1.51195 0.94481,0.98992 3.54993,16.07993 2.88995,16.7399 -0.25248,0.25248 -2.80566,0.77035 -5.67374,1.15081 -4.00795,0.53167 -5.31608,0.3732 -5.65281,-0.6848 z m -16.55206,-11.62655 c -0.63863,-3.7125 -1.39582,-7.71157 -1.68266,-8.88682 -0.46891,-1.92123 0.0667,-2.23904 5.30848,-3.1499 3.2065,-0.55719 5.93658,-0.91404 6.06684,-0.793 0.59016,0.54837 3.32778,16.84843 2.90134,17.27487 -0.61506,0.61506 -7.62789,2.24975 -9.78553,2.28099 -1.2571,0.0182 -1.9224,-1.57513 -2.80847,-6.72614 z M 918.77451,885.25173 C 905.54474,881.68845 893.54842,872.35368 888.22359,861.47896 882.83006,850.46394 882.5,847.41349 882.5,808.58067 l 0,-35.7899 13.43064,0 13.43064,0 0.3253,34.75 c 0.28878,30.84837 0.52708,35.19911 2.12241,38.75 4.78121,10.64203 15.46034,15.8195 27.80192,13.47897 7.46223,-1.41519 12.30452,-5.08912 15.62848,-11.85762 L 958,842.29077 l 0.31936,-34.75 0.31936,-34.75 13.43064,0 13.43064,0 -0.0119,36.25 c -0.009,28.22027 -0.32841,37.43929 -1.44089,41.61904 -4.76244,17.89318 -16.98361,29.97233 -35.00734,34.60051 -7.39814,1.89971 -23.19686,1.89523 -30.26539,-0.009 z m 98.72549,-0.006 c -12.0003,-2.55861 -29,-10.51045 -29,-13.56516 0,-1.29886 13.7647,-20.88997 14.6773,-20.88997 0.3226,0 2.0338,0.89441 3.8026,1.98757 5.0206,3.10293 15.7821,6.85615 22.9344,7.99873 10.8327,1.73054 17.5628,-0.81297 19.1294,-7.22958 0.5518,-2.26032 0.069,-3.34384 -2.7416,-6.15459 -2.73,-2.72999 -5.7971,-4.15151 -15.3567,-7.11736 -30.0655,-9.32776 -39.28453,-16.99238 -40.23742,-33.45295 -0.61812,-10.67764 1.4366,-17.30796 7.42924,-23.97322 9.07658,-10.09529 20.27708,-13.51534 41.86278,-12.78262 10.7648,0.3654 15.6176,0.99245 21,2.7135 8.6912,2.77903 16.4153,6.62613 17.1505,8.54202 0.5706,1.48715 -12.4084,22.4685 -13.899,22.4685 -0.4499,0 -3.1325,-1.17286 -5.9614,-2.60636 -7.4183,-3.75917 -14.1585,-5.53724 -21.6899,-5.72187 -10.483,-0.25699 -15.9787,3.25272 -14.421,9.2096 0.8337,3.18814 5.6073,5.56116 19.2947,9.59174 22.5991,6.65484 32.5456,12.7576 37.587,23.06189 2.4381,4.98319 2.6428,6.28101 2.2437,14.22425 -0.5222,10.39355 -2.7218,16.02587 -8.8588,22.68374 -4.7085,5.10815 -13.4824,9.72886 -21.745,11.45193 -7.1796,1.49721 -25.2378,1.25801 -33.2008,-0.43979 z m -927,-56.45513 0,-56 13.48157,0 13.48157,0 0.26843,23.25 0.26843,23.25 24.5,0 24.5,0 0.26843,-23.25 0.26843,-23.25 13.48157,0 13.48157,0 0,56 0,56 -13.4805,0 -13.4805,0 -0.2695,-21.75 -0.2695,-21.75 -24.5,0 -24.5,0 -0.2695,21.75 -0.26951,21.75 -13.48049,0 -13.4805,0 0,-56 z m 111,44.50787 0,-11.50787 44,0 44,0 0,10 c 0,5.5 0.3375,9.98712 0.75,9.97137 0.4125,-0.0157 13.55114,-24.54074 29.19698,-54.5 28.3766,-54.33659 28.45475,-54.47137 31.58334,-54.47137 1.82882,0 3.14697,0.52112 3.16183,1.25 0.014,0.6875 12.66046,25.1 28.10322,54.25 15.44276,29.15 28.37944,53.7875 28.74818,54.75 0.62073,1.62027 -0.47954,1.75 -14.8423,1.75 l -15.51274,0 -3.19244,-6.75 c -1.75585,-3.7125 -4.76248,-10.35 -6.68142,-14.75 -6.80676,-15.60748 -19.68265,-42.5 -20.34861,-42.5 -0.37178,0 -2.59837,4.1625 -4.94796,9.25 -2.3496,5.0875 -5.77791,12.4 -7.61848,16.25 -1.84056,3.85 -6.41411,13.975 -10.16342,22.5 l -6.81694,15.5 -59.70962,0.25787 -59.70962,0.25787 0,-11.50787 z m 208.17116,-3.70162 C 392.06654,835.99643 359.5,773.31952 359.5,773.0386 c 0,-0.16424 7.02295,-0.17469 15.60655,-0.0232 l 15.60655,0.27539 7.98187,17 c 4.39003,9.35 10.89534,23.525 14.45624,31.5 3.5609,7.975 6.80288,14.83426 7.20439,15.24281 0.40151,0.40855 2.48954,-3.41645 4.64005,-8.5 2.15052,-5.08355 8.71672,-19.59281 14.59156,-32.24281 l 10.68154,-23 30.86562,-0.25582 30.86563,-0.25582 9.5,16.74144 c 5.225,9.2078 10.44149,18.77292 11.59221,21.25582 l 2.0922,4.51438 3.29217,-6.5 c 1.81069,-3.575 7.09316,-13.1375 11.73883,-21.25 l 8.44668,-14.75 15.95414,0 15.95414,0 -1.20407,2.25 c -0.66224,1.2375 -10.12807,17.00054 -21.03519,35.02899 L 548.5,842.84875 l 0,20.97101 0,20.97101 -13.5,0 -13.5,0 0,-21.09164 0,-21.09165 -20.0969,-33.47812 c -11.05329,-18.41297 -20.35537,-33.21965 -20.67129,-32.90374 -0.31592,0.31592 -13.28734,24.75982 -28.82539,54.31978 -34.41959,65.48065 -30.35645,61.72378 -42.23526,39.05162 z M 624.5,828.79077 l 0,-56 13.5,0 13.5,0 0,56 0,56 -13.5,0 -13.5,0 0,-56 z m 34,0 0,-56 3.46421,0 c 3.05454,0 7.6962,3.4469 39.25,29.14713 L 737,831.08504 l 0.2651,-29.14714 0.26511,-29.14713 13.48489,0 13.4849,0 0,56 0,56 -3.44004,0 c -3.05911,0 -7.34931,-3.32206 -38.74274,-30 -19.41648,-16.5 -35.64346,-30 -36.05996,-30 -0.41649,0 -0.75726,13.5 -0.75726,30 l 0,30 -13.5,0 -13.5,0 0,-56 z m 113,30 0,-26 13.5,0 13.5,0 0,14 0,14 12.3185,0 c 20.1139,0 28.62833,-4.0527 34.7839,-16.55643 2.89388,-5.87832 3.23093,-7.47435 3.23093,-15.29934 0,-10.20016 -2.52279,-17.02754 -8.90028,-24.08666 -7.5724,-8.38173 -8.17593,-8.51507 -40.18305,-8.87716 l -28.25,-0.3196 0,-11.4304 0,-11.43041 28.05259,0 c 22.06668,0 29.58839,0.34182 35.25,1.6019 20.87344,4.64571 36.47269,19.61631 41.15997,39.50121 3.11974,13.2349 1.43528,29.98137 -4.19664,41.72184 -3.87144,8.07055 -15.00091,19.03073 -23.26592,22.91204 -11.66901,5.47986 -17.78959,6.26301 -48.94741,6.26301 l -28.05259,0 0,-26 z m 348,-17.97693 0,-43.97692 -17.75,-0.27308 -17.75,-0.27307 -0.2818,-11.75944 -0.2818,-11.75944 49.2818,0.25944 49.2818,0.25944 0,11.5 0,11.5 -17.75,0.27307 -17.75,0.27308 0,43.97692 0,43.97693 -13.5,0 -13.5,0 0,-43.97693 z m 68,-12.09323 0,-56.07015 34.25,0.34676 c 33.3118,0.33726 34.4144,0.41195 40.25,2.72651 11.4139,4.52705 18.7274,10.93214 22.7191,19.89737 2.8583,6.41956 3.5903,20.87373 1.4329,28.29481 -2.0814,7.15986 -6.8346,14.16357 -12.2532,18.05494 -2.4194,1.73743 -4.3988,3.71392 -4.3988,4.39221 0,0.67828 5.625,9.13367 12.5,18.78975 6.875,9.65607 12.5,18.02483 12.5,18.59723 0,0.67743 -5.5621,1.04073 -15.9335,1.04073 l -15.9335,0 -11.1229,-16.52946 -11.123,-16.52945 -12.6936,0.27945 -12.6935,0.27946 -0.2748,16.25 -0.2747,16.25 -13.4753,0 -13.4752,0 0,-56.07016 z m 57.8582,0.1411 c 8.5282,-1.64757 13.4275,-7.27157 13.4275,-15.41377 0,-7.13292 -2.4954,-11.47998 -8.2705,-14.40717 -4.0461,-2.05088 -5.8362,-2.25 -20.2271,-2.25 l -15.7881,0 0,15.83333 c 0,8.70834 0.3,16.13334 0.6667,16.5 0.9516,0.95162 24.9888,0.74272 30.1915,-0.26239 z m 73.1418,34.83742 0,-21.09165 -19.9895,-33.29925 c -10.9943,-18.31459 -20.2674,-34.02335 -20.607,-34.90836 -0.5515,-1.43724 1.0761,-1.60853 15.2395,-1.60375 l 15.857,0.005 9.5,16.73027 c 5.225,9.20166 10.4415,18.76175 11.5922,21.24466 l 2.0922,4.51437 3.2922,-6.5 c 1.8107,-3.575 7.0931,-13.1375 11.7388,-21.25 l 8.4467,-14.75 15.9189,0 c 8.7555,0 15.919,0.1528 15.919,0.33954 0,0.18675 -9.45,15.94504 -21,35.01842 l -21,34.67888 0,20.98158 0,20.98158 -13.5,0 -13.5,0 0,-21.09164 z m -1117,-34.40836 0,-10.5 38,0 38,0 0,10.5 0,10.5 -38,0 -38,0 0,-10.5 z m 0,-45 0,-11.5 44,0 44,0 0,11.5 0,11.5 -44,0 -44,0 0,-11.5 z"
         id="path3447"
         inkscape:connector-curvature="0" />
      <path
         style="fill:#909090"
         d="m 472.13748,1027.6796 c -6.39011,-7.0613 -12.44808,-18.1536 -15.77739,-28.88883 -3.31996,-10.70503 -3.33857,-29.95691 -0.0402,-41.54799 2.79372,-9.81756 9.04595,-21.48906 15.48771,-28.91206 l 4.80766,-5.53995 8.62946,0 8.62946,0 -2.49385,2.75 c -7.4463,8.21112 -13.91172,20.34725 -17.04827,32.00102 -3.02974,11.25692 -3.01073,29.8015 0.0418,40.74898 2.92992,10.50783 8.06581,20.78433 14.17886,28.37053 2.72098,3.3767 4.94728,6.3623 4.94728,6.6345 0,0.2722 -3.56224,0.495 -7.9161,0.495 l -7.91609,0 -5.53033,-6.1112 z m 494.36252,5.146 c 0,-0.5309 1.28992,-2.4434 2.8665,-4.25 6.63075,-7.5984 12.72334,-19.514 16.25195,-31.78483 2.01355,-7.00215 1.76926,-31.01819 -0.39669,-39 -2.52197,-9.29375 -8.65256,-21.60948 -14.06417,-28.25348 -2.56167,-3.14504 -4.65759,-5.94962 -4.65759,-6.23239 0,-0.28277 3.55485,-0.51413 7.89966,-0.51413 l 7.89965,0 5.09037,5.56967 c 6.33105,6.92718 11.62122,16.27374 14.86532,26.26368 3.6776,11.32518 4.2886,29.56524 1.3802,41.20366 -2.7586,11.03832 -8.6365,22.80342 -15.5944,31.21302 l -5.58479,6.75 -7.978,0 c -4.46027,0 -7.97801,-0.4256 -7.97801,-0.9652 z m -199.45667,-12.9647 c -1.05354,-1.7047 -9.54972,-22.39707 -9.29892,-22.64748 0.50396,-0.50319 10.84733,-4.42265 11.67129,-4.42265 0.46291,0 1.41057,1.37347 2.1059,3.05215 1.47201,3.55373 1.72179,3.50654 10.9784,-2.07442 15.25189,-9.19559 26.91544,-20.86333 35.4584,-35.47113 l 3.7554,-6.42143 7.8931,3.96858 c 4.3412,2.18271 7.8931,4.38267 7.8931,4.88879 0,2.44435 -10.91125,19.59488 -16.18116,25.43388 -10.83607,12.00624 -31.32489,25.73201 -48.52864,32.51011 -2.86538,1.1289 -5.45148,1.6615 -5.74687,1.1836 z m -87.40659,-2.6159 c -4.04979,-1.2911 -7.54421,-2.5284 -7.76538,-2.7495 -0.22117,-0.2212 1.67177,-5.8863 4.20654,-12.5892 2.53477,-6.70282 4.3492,-12.86311 4.03208,-13.68952 -1.10594,-2.88203 -10.63977,-6.40574 -17.35998,-6.41624 l -6.25,-0.01 0,-9 0,-9 3.75,0.008 c 6.91512,0.0139 16.70633,2.03594 21.73608,4.48876 2.74234,1.33735 5.2765,2.11027 5.63145,1.71761 0.35496,-0.39265 2.11284,-4.76392 3.90639,-9.71392 1.79356,-4.95 3.47385,-9.5724 3.73398,-10.272 0.37461,-1.00748 -3.53404,-1.21543 -18.7958,-1 l -19.26876,0.272 -2.63547,6.5 c -3.35342,8.27072 -9.77926,17.77417 -17.43327,25.7828 l -6.0046,6.2828 -6.24212,-6.18663 -6.24212,-6.18664 5.60062,-6.59616 c 10.02371,-11.80549 14.92021,-21.08272 16.54443,-31.34617 l 0.59345,-3.75 -4.43713,0 -4.43713,0 0,-6.35326 0,-6.35327 7.65088,-0.64673 c 4.20798,-0.35616 10.26052,-0.64719 13.45009,-0.64719 l 5.79922,0 0.29991,5.75 0.2999,5.75 30.85139,0.2646 c 23.96609,0.20554 30.75353,0.54031 30.41293,1.5 -9.15909,25.8067 -32.54083,86.70126 -33.26432,86.63236 -0.55,-0.052 -4.31347,-1.1516 -8.36326,-2.4427 z m 182.25727,-3.2042 c -1.47967,-2.6125 -3.29864,-5.7467 -4.04216,-6.9649 -2.04731,-3.3542 -1.74272,-3.9758 3.39815,-6.9353 5.67842,-3.26886 14.89892,-10.20562 17.92957,-13.48871 3.49066,-3.78142 9.10504,-13.68627 10.90573,-19.23982 0.9133,-2.81671 1.99714,-5.49071 2.40854,-5.94222 0.4114,-0.45151 4.4541,0.19475 8.98379,1.43613 l 8.23578,2.25705 -0.54237,4.06387 c -0.9932,7.44182 -9.31175,22.07156 -17.09854,30.07101 -5.9572,6.11989 -24.3099,19.49289 -26.75147,19.49289 -0.4052,0 -1.94736,-2.1375 -3.42702,-4.75 z m 43.25054,0.1734 c -1.1533,-8.4143 -1.22204,-8.2857 4.60545,-8.6212 l 5.25,-0.3022 -0.0614,-9.00003 c -0.0338,-4.95 -0.41807,-15.6375 -0.85396,-23.75 l -0.79256,-14.75 -26.39604,0 -26.39604,0 0,-8.98312 0,-8.98312 25.66143,-0.26688 25.66143,-0.26688 -0.22395,-7.65502 -0.22395,-7.65503 8.67463,-0.72259 c 6.87647,-0.57281 8.85551,-0.43703 9.54721,0.65502 0.47992,0.75769 0.87947,4.64012 0.88789,8.62762 l 0.0153,7.25 9.5,0 9.5,0 0,9 0,9 -8.92289,0 -8.92288,0 0.49829,7.25 c 1.37198,19.96166 2.82115,51.95333 2.36485,52.20593 -0.28455,0.1575 -6.86482,0.5977 -14.62282,0.9782 l -14.10544,0.6918 -0.64456,-4.7025 z m -387.90752,-4.5273 c -10.75416,-8.8353 -10.43664,-7.7907 -4.49683,-14.79499 2.86147,-3.3743 3.53674,-3.35466 7.50586,0.21824 1.23533,1.11201 2.40338,1.83257 2.59567,1.60123 C 529.6476,988.52338 562.5,946.86266 562.5,946.42 c 0,-0.34608 -11.25,-0.62923 -25,-0.62923 l -25,0 0,-9 0,-9 44.5,0 c 24.475,0 44.5,0.24753 44.5,0.55006 0,0.30254 -7.2,9.33551 -16,20.07328 -8.8,10.73778 -16,20.0881 -16,20.7785 0,2.38629 6.14063,10.51293 12.14242,16.06953 4.98701,4.61709 18.37738,13.53523 22.27209,14.83346 1.02747,0.3425 -5.0022,15.3223 -6.55344,16.281 -1.006,0.6218 -15.55063,-6.5882 -21.37678,-10.5966 -4.957,-3.4105 -14.9008,-13.9602 -17.01857,-18.05552 -0.83439,-1.61354 -1.93138,-2.93371 -2.43774,-2.93371 -0.50636,0 -6.83394,7.3125 -14.06129,16.25003 -7.22735,8.9375 -13.664,16.3438 -14.30366,16.4586 -0.63967,0.1147 -5.55637,-3.4009 -10.926,-7.8125 z M 740.5,967.27234 l 0,-9.51843 23.25,0.26843 23.25,0.26843 0.28753,9.25 0.28752,9.25 -23.53752,0 -23.53753,0 0,-9.51843 z m 25.53182,-21.6555 c -13.1825,-3.22433 -24.30176,-6.19601 -24.70947,-6.60372 -0.60378,-0.60378 2.68756,-16.05347 3.62078,-16.99609 0.43085,-0.43519 48.52017,11.40371 49.2382,12.12173 0.69898,0.69899 -2.65607,16.55763 -3.6061,17.04525 -0.31638,0.16239 -11.36091,-2.34283 -24.54341,-5.56717 z m 61.05337,1.0306 c -2.45679,-11.43196 -2.7384,-14.14395 -1.54527,-14.88134 2.36979,-1.46461 9.26719,-2.09645 9.99689,-0.91577 1.21185,1.96081 3.07505,15.23017 2.24967,16.02169 -0.43256,0.41482 -2.90336,1.06424 -5.49066,1.44316 -4.38581,0.64231 -4.73844,0.52945 -5.21063,-1.66774 z m -14.92395,-4.60667 c -0.84979,-1.39524 -3.04735,-16.19723 -2.48778,-16.75679 0.76788,-0.76788 10.82654,-1.90178 10.82654,-1.22047 0,0.30323 0.67492,4.07841 1.49983,8.38929 0.8249,4.31088 1.4999,7.91318 1.5,8.00511 1.7e-4,0.16623 -9.74236,2.33286 -10.49003,2.33286 -0.21547,0 -0.59732,-0.3375 -0.84856,-0.75 z M 922,885.75167 c -19.385,-3.97379 -33.58576,-17.50151 -37.99236,-36.19174 -1.15586,-4.90248 -1.4813,-13.95367 -1.49286,-41.51916 l -0.0148,-35.25 13.5,0 13.5,0 0,33.38516 c 0,37.93231 0.41596,40.711 7.13,47.62936 9.13872,9.41682 27.88248,8.88996 36.21955,-1.01809 5.137,-6.10498 5.65045,-10.34654 5.65045,-46.67793 l 0,-33.3185 13.5,0 13.5,0 -0.0148,35.25 c -0.0164,39.10472 -0.50181,43.31069 -6.24124,54.07896 -6.07796,11.40343 -17.53159,19.99494 -30.83705,23.13126 -6.82261,1.6082 -19.80356,1.85432 -26.40693,0.50068 z m 98.6639,-0.082 c -11.2297,-1.86719 -32.1639,-10.9171 -32.1639,-13.9045 0,-0.51138 3.19928,-5.39544 7.10952,-10.85346 l 7.10948,-9.92368 8.1723,3.92135 c 9.7517,4.67919 21.7414,7.3885 28.3267,6.40097 5.5429,-0.83121 10.282,-4.99849 10.282,-9.04145 0,-4.76297 -4.6618,-7.7864 -19.1972,-12.45048 -17.6272,-5.65617 -24.6663,-8.93887 -30.2972,-14.12921 -7.31088,-6.73898 -8.99087,-10.73624 -8.99338,-21.39844 -0.002,-7.03593 0.4563,-9.99312 2.09849,-13.55081 2.72839,-5.91085 7.60899,-11.4076 12.86259,-14.48642 10.7935,-6.32541 31.371,-8.22276 49.2232,-4.53864 9.0759,1.87297 22.0805,7.33128 22.9663,9.6394 0.3336,0.86958 -9.8393,17.91443 -13.3478,22.36432 -0.1856,0.23532 -2.1114,-0.56922 -4.2797,-1.78788 -9.8747,-5.54986 -24.0085,-8.311 -31.788,-6.20998 -8.0687,2.17914 -9.4323,9.30577 -2.5496,13.32544 1.7526,1.0236 9.0877,3.64184 16.3001,5.8183 21.4736,6.47997 31.7423,12.79245 36.5354,22.45943 3.1123,6.27712 2.7908,20.20679 -0.635,27.51247 -1.4302,3.0501 -4.0016,7.14145 -5.7141,9.0919 -3.9905,4.54492 -13.1089,9.39728 -21.2772,11.32269 -6.9635,1.64142 -22.1459,1.8482 -30.743,0.41871 z M 90.5,828.79077 l 0,-56 13.5,0 13.5,0 0,23.5 0,23.5 25,0 25,0 0,-23.5 0,-23.5 13.5,0 13.5,0 0,56 0,56 -13.5,0 -13.5,0 0,-22 0,-22 -25,0 -25,0 0,22 0,22 -13.5,0 -13.5,0 0,-56 z m 111,44.5 0,-11.5 44,0 44,0 0.0318,10.75 c 0.0257,8.67435 0.26702,10.43745 1.25,9.13127 0.67001,-0.8903 13.8182,-25.73869 29.2182,-55.21866 25.59954,-49.00477 28.21433,-53.60054 30.5,-53.60702 2.28659,-0.006 4.97558,4.68908 31.5,55.00568 15.95,30.25702 29.15,55.44611 29.33333,55.97575 0.20425,0.59006 -5.63274,0.96298 -15.07268,0.96298 l -15.40601,0 -14.86231,-32.5 c -8.17427,-17.875 -15.16816,-32.5 -15.54197,-32.5 -0.55763,0 -23.44221,49.35956 -28.52897,61.53391 l -1.44823,3.46609 -59.48658,0 -59.48658,0 0,-11.5 z m 191.97483,-35.25 c -13.369,-25.7125 -26.52258,-50.9125 -29.23018,-56 l -4.92291,-9.25 15.43425,0 15.43425,0 11.56245,24.75 c 6.35935,13.6125 13.04856,28.2375 14.86491,32.5 1.81636,4.2625 3.60455,7.75 3.97376,7.75 0.36922,0 2.35493,-3.9375 4.41271,-8.75 2.05777,-4.8125 8.69996,-19.44391 14.76043,-32.51425 l 11.01903,-23.76424 30.57628,0.26424 30.57627,0.26425 8.36414,14.5 c 4.60027,7.975 9.71957,17.3125 11.37621,20.75 3.23961,6.72212 4.31532,7.52686 5.3469,4 0.36196,-1.2375 5.43114,-10.6875 11.26484,-21 l 10.60673,-18.75 15.88411,0 15.88411,0 -1.99835,3.25 c -1.09909,1.7875 -10.57937,17.425 -21.06728,34.75 l -19.06893,31.5 -0.0143,21.25 -0.0143,21.25 -13.5,0 -13.5,0 0,-21.17759 0,-21.1776 -20.15054,-33.87328 -20.15054,-33.87328 -2.79196,5.1055 c -1.53558,2.80802 -14.59699,27.58091 -29.02537,55.05087 -24.68569,46.99871 -26.3917,49.94538 -28.91645,49.94538 -2.52584,0 -4.10728,-2.73923 -26.99031,-46.75 z m 231.02517,-9.25 0,-56 13.5,0 13.5,0 0,56 0,56 -13.5,0 -13.5,0 0,-56 z m 34,0 0,-56 3.25,7.8e-4 c 2.7742,6.7e-4 8.4472,4.24074 38.75,28.96225 19.525,15.92881 35.8375,28.97846 36.25,28.99922 0.4125,0.0208 0.75,-13.01225 0.75,-28.96225 l 0,-29 13.5,0 13.5,0 0,56 0,56 -3.25,-0.006 c -2.80853,-0.005 -8.14015,-4.16394 -39.25,-30.6169 l -36,-30.61088 -0.26445,30.61689 -0.26445,30.61689 -13.48555,0 -13.48555,0 0,-56 z m 113,30 0,-26 13.5,0 13.5,0 0,14.09172 0,14.09171 14.75,-0.36339 c 13.66162,-0.33658 15.12558,-0.55997 19.84002,-3.02749 5.9742,-3.12688 10.88341,-8.3878 13.75622,-14.74175 1.60053,-3.53997 2.06583,-6.66118 2.09479,-14.05189 0.0328,-8.37389 -0.28831,-10.16647 -2.7067,-15.10948 -3.41357,-6.9771 -12.02336,-15.32085 -17.32959,-16.79413 -2.35477,-0.6538 -14.52305,-1.08636 -30.65474,-1.08972 l -26.75,-0.006 0,-11.5 0,-11.5 26.91203,0 c 31.14386,0 38.53253,0.98201 50.08797,6.65706 8.74254,4.2936 18.02973,13.05453 22.28096,21.01842 3.88692,7.28141 6.71904,19.22038 6.71904,28.32452 0,9.10414 -2.83212,21.04311 -6.71904,28.32452 -4.25134,7.9641 -13.53843,16.72485 -22.28096,21.01823 -11.90525,5.84656 -17.64287,6.62011 -49.25,6.63989 l -27.75,0.0174 0,-26 z m 348,-18 0,-44 -17.4809,0 c -20.4645,0 -18.784,1.28482 -18.3123,-14 l 0.2932,-9.5 48.7818,-0.25953 48.7818,-0.25953 -0.2818,11.75953 -0.2818,11.75953 -17.25,0.27361 -17.25,0.27362 0,43.97638 0,43.97639 -13.5,0 -13.5,0 0,-44 z m 68,-12 0,-56 30.3163,0 c 32.8122,0 38.7191,0.60885 48.1595,4.96401 8.5794,3.95797 13.8795,8.98109 17.7322,16.80575 3.0905,6.27656 3.292,7.32989 3.292,17.20803 0,9.51387 -0.2795,11.12755 -2.9165,16.83902 -2.0447,4.42846 -4.6605,7.89492 -8.75,11.59579 -3.2084,2.90343 -5.8335,5.86103 -5.8335,6.57244 0,0.7114 5.4089,8.86724 12.0198,18.12408 6.6109,9.25684 12.2841,17.51918 12.607,18.36075 0.5119,1.33405 -1.4545,1.53013 -15.3448,1.53013 l -15.9321,0 -10.9249,-16.25 -10.925,-16.25 -13.25,-0.27903 -13.25,-0.27902 0,16.52902 0,16.52903 -13.5,0 -13.5,0 0,-56 z m 63.5,-1.55794 c 5.6406,-2.90199 8.8313,-9.18561 8.088,-15.92788 -0.5856,-5.31233 -2.5162,-8.62317 -6.9695,-11.95239 -2.4943,-1.86467 -4.4244,-2.09185 -20.1882,-2.37625 l -17.4303,-0.31446 0,16.6505 0,16.6505 16.25,-0.33604 c 14.024,-0.29001 16.7979,-0.61795 20.25,-2.39398 z m 67.5,36.38035 0,-21.1776 -20.25,-33.98013 c -11.1375,-18.68907 -20.4039,-34.37079 -20.592,-34.84826 -0.188,-0.47748 6.773,-0.744 15.469,-0.59228 l 15.8109,0.27586 8.3632,14.5 c 4.5998,7.975 9.7187,17.3125 11.3753,20.75 3.2396,6.72212 4.3154,7.52686 5.3469,4 0.362,-1.2375 5.4312,-10.6875 11.2649,-21 l 10.6067,-18.75 15.8841,0 15.8841,0 -1.9983,3.25 c -1.0991,1.7875 -10.5794,17.425 -21.0673,34.75 l -19.0689,31.5 -0.014,21.25 -0.014,21.25 -13.5,0 -13.5,0 0,-21.17759 z m -1117,-34.32241 0,-10.52405 37.75,0.26202 37.75,0.26203 0,10 0,10 -37.75,0.26202 -37.75,0.26203 0,-10.52405 z m 0,-45 0,-11.5 44,0 44,0 0,11.5 0,11.5 -44,0 -44,0 0,-11.5 z"
         id="path3445"
         inkscape:connector-curvature="0" />
      <path
         style="fill:#6e6e6e"
         d="m 475.54442,1031.1747 c -1.70996,-1.4388 -5.12806,-5.4455 -7.59576,-8.9037 -20.33364,-28.49501 -18.81993,-66.5027 3.72759,-93.5963 l 4.89666,-5.88393 7.96355,0 c 4.37995,0 7.96354,0.38026 7.96354,0.84501 0,0.46476 -0.88193,1.64315 -1.95984,2.61865 -1.07791,0.9755 -3.82083,4.62998 -6.09536,8.12107 -18.29659,28.08268 -16.69428,66.9208 3.80179,92.1511 2.33938,2.8798 4.25341,5.6923 4.25341,6.25 0,0.5879 -2.91013,1.0142 -6.92327,1.0142 -6.00779,0 -7.3344,-0.346 -10.03231,-2.6161 z m 491.67498,2.0021 c -0.33767,-0.3376 1.64828,-3.6001 4.41323,-7.25 5.94025,-7.8414 11.10746,-18.1856 13.5709,-27.16768 2.51112,-9.15591 2.47097,-32.87219 -0.0711,-41.96835 -2.50495,-8.96348 -8.09526,-20.07439 -13.77241,-27.37307 l -4.76574,-6.12693 7.70284,-0.31791 7.70283,-0.31792 5.34454,5.81792 c 7.05209,7.67669 14.46921,22.86197 16.73691,34.26614 2.4857,12.49981 1.5751,27.78645 -2.3398,39.2816 -3.56687,10.4733 -7.90608,17.9167 -15.07555,25.8603 l -5.33386,5.9099 -6.74943,0 c -3.71218,0 -7.0257,-0.2763 -7.36336,-0.614 z m -287.37257,-16.2118 -8.15317,-2.6742 4.40317,-11.9268 c 2.42174,-6.55978 4.40317,-12.5159 4.40317,-13.23585 0,-2.2708 -7.31721,-6.28789 -12.5332,-6.88063 -2.73174,-0.31043 -6.4293,-0.78559 -8.2168,-1.0559 l -3.25,-0.49148 0,-8.45468 c 0,-8.11031 0.0916,-8.45343 2.25,-8.42381 6.8545,0.0941 17.67006,2.26987 22.85944,4.59872 3.26266,1.4642 6.07426,2.48403 6.248,2.26629 0.38463,-0.48204 7.64256,-20.87232 7.64256,-21.47084 0,-0.23378 -8.775,-0.42505 -19.5,-0.42505 -15.16287,0 -19.5,0.2843 -19.5,1.27821 0,2.23224 -6.95438,15.88934 -10.77128,21.15276 -2.02176,2.78797 -6.1343,7.67278 -9.13898,10.85514 l -5.46306,5.78611 -6.2194,-6.16411 -6.21939,-6.16411 6.95136,-8.04432 c 3.98315,-4.60943 8.37985,-11.06646 10.29681,-15.122 3.56167,-7.53509 6.2469,-17.22909 5.09172,-18.38166 -0.38369,-0.38281 -2.3469,-0.69602 -4.36269,-0.69602 l -3.66509,0 -0.29772,-6.25 -0.29771,-6.25 3.79771,-0.005 c 2.08875,-0.003 8.18522,-0.29572 13.54772,-0.65083 l 9.75,-0.64565 0,6.15083 0,6.15082 31.10699,0 c 24.47294,0 31.00541,0.26658 30.63071,1.25 -0.26196,0.6875 -7.54129,20.15 -16.17629,43.25 -8.63501,23.1 -16.00633,42.30346 -16.38071,42.67426 -0.37439,0.3708 -4.34963,-0.5292 -8.83387,-2 z m 82.85332,-7.4242 c -2.31332,-5.6375 -4.20471,-10.76027 -4.20309,-11.38389 0.002,-0.62362 2.52082,-2.15579 5.59824,-3.40482 4.68513,-1.90156 5.73997,-2.04245 6.48469,-0.86614 0.48916,0.77265 0.89628,1.94076 0.9047,2.5958 0.0322,2.50335 2.21412,2.32034 7.79408,-0.65375 15.44759,-8.23348 29.43839,-21.43874 37.72326,-35.60522 2.13685,-3.65385 4.42617,-6.85096 5.08737,-7.10469 1.04507,-0.40103 10.26425,3.80756 14.30863,6.53195 1.13438,0.76414 0.48618,2.56626 -3.43709,9.55579 -8.15373,14.52632 -18.79852,25.47411 -35.38586,36.39307 -8.3712,5.5106 -26.16258,14.1778 -29.12199,14.187 -1.02335,0 -2.97045,-3.4643 -5.75294,-10.2451 z m 97.89343,1.9195 c -2.25147,-4.0787 -4.09358,-7.6385 -4.09358,-7.9108 0,-0.2723 2.94654,-2.2183 6.54787,-4.32446 13.49511,-7.89224 21.9775,-17.61974 26.99734,-30.96025 1.44332,-3.83571 2.75215,-7.10257 2.9085,-7.25968 0.15635,-0.15711 3.94323,0.73965 8.41528,1.9928 5.7348,1.607 8.13101,2.73909 8.13101,3.84149 0,3.05016 -4.17235,13.85524 -7.45553,19.3075 -7.05643,11.71837 -18.06593,21.9916 -31.70089,29.5808 l -5.65641,3.1483 -4.09359,-7.4157 z m 44.65442,1.567 c -0.27358,-3.1551 -0.30225,-6.074 -0.0637,-6.4865 0.23856,-0.4125 2.72637,-0.75 5.52847,-0.75 l 5.09475,0 -0.66248,-15.25003 c -0.36436,-8.3875 -0.94812,-19.1875 -1.29724,-24 l -0.63476,-8.75 -26.35652,0 -26.35652,0 0,-9 0,-9 25.9687,0 25.9687,0 -0.60474,-7.84202 -0.60473,-7.84201 8.78539,-0.6753 c 4.83196,-0.37141 8.95217,-0.50851 9.15602,-0.30466 0.20385,0.20385 0.65334,4.03664 0.99887,8.51731 l 0.62822,8.14668 9.39072,0 9.39072,0 -0.28894,8.75 -0.28893,8.75 -8.86215,0.29057 -8.86215,0.29057 0.58859,6.20943 c 1.462,15.42363 2.87439,51.86476 2.03973,52.62746 -0.49721,0.4543 -7.0363,1.1026 -14.53131,1.4405 l -13.62728,0.6145 -0.49743,-5.7365 z m -387.57501,-3.3419 c -11.51416,-9.0675 -11.07749,-7.5405 -4.31554,-15.09158 l 2.41509,-2.69696 3.39095,2.58641 c 1.86502,1.42252 3.56179,2.41115 3.77061,2.19695 0.20881,-0.2142 9.3774,-11.63945 20.37463,-25.38945 l 19.99497,-25 -25.40185,-0.26688 -25.40185,-0.26688 0,-8.98312 0,-8.98312 44,0 c 28.1547,0 44,0.35394 44,0.98285 0,0.54056 -7.20736,9.79617 -16.01635,20.56802 l -16.01636,19.58518 1.76636,3.18197 c 0.97149,1.75009 5.59135,7.00698 10.26635,11.68198 6.20941,6.20941 10.58558,9.57793 16.23922,12.5 4.25657,2.2 7.74407,4.29083 7.75,4.64623 0.0182,1.0889 -7.17693,15.8538 -7.72576,15.8538 -0.28296,0 -4.94087,-2.3148 -10.3509,-5.144 -11.42199,-5.9732 -19.06969,-12.4151 -25.59511,-21.55964 -4.54041,-6.36282 -4.68276,-6.46415 -6.232,-4.43605 -5.93056,7.76369 -25.68113,32.04079 -26.10279,32.08519 -0.28454,0.03 -5.14889,-3.5929 -10.80967,-8.0509 z m 223.51198,-33.543 C 740.80824,975.76567 740.5,971.41244 740.5,966.46855 l 0,-8.98888 14.25,0.65189 c 7.8375,0.35854 18.43002,0.65354 23.53893,0.65555 l 9.28894,0.004 -0.28894,8.75 -0.28893,8.75 -22.56503,0.2683 c -12.41077,0.14757 -22.87327,-0.0399 -23.25,-0.41667 z M 763.5,944.88685 c -18.33697,-4.69461 -22.47432,-6.06889 -22.36121,-7.42764 0.13204,-1.58622 3.48029,-14.85278 3.90049,-15.45465 0.57139,-0.81845 49.45747,12.19543 49.43788,13.16077 -0.0126,0.61899 -0.82614,4.27544 -1.80795,8.12544 -1.57108,6.16065 -2.07794,7.02137 -4.22717,7.17825 -1.34312,0.098 -12.56704,-2.41394 -24.94204,-5.58217 z m 64,3.60318 c 0,-0.28783 -0.67492,-4.05041 -1.49983,-8.36129 -0.8249,-4.31088 -1.4999,-7.91318 -1.5,-8.00511 -3.7e-4,-0.36451 10.31312,-2.35291 10.61877,-2.04725 0.36847,0.36847 3.38106,14.3685 3.38106,15.71238 0,0.47698 -0.7875,1.09857 -1.75,1.3813 -3.41348,1.00273 -9.25,1.83559 -9.25,1.31997 z m -15.3103,-6.40858 c -0.72432,-1.19661 -3.03228,-16.28143 -2.56286,-16.75085 0.22518,-0.22519 2.70875,-0.71444 5.51903,-1.08724 l 5.1096,-0.67781 1.16565,6.86261 c 0.64111,3.77443 1.38475,7.59747 1.65253,8.49564 0.36968,1.23993 -0.42311,1.79438 -3.29339,2.30332 -2.07914,0.36866 -4.52989,0.8896 -5.4461,1.15764 -0.91622,0.26805 -1.88122,0.13156 -2.14446,-0.30331 z M 920.91093,885.3069 c -13.72718,-2.98678 -27.32372,-13.24676 -32.72237,-24.69237 -5.19369,-11.01108 -5.65773,-15.35183 -5.67378,-53.07376 l -0.0148,-34.75 13.5,0 13.5,0 0,33.87427 c 0,36.64712 0.26895,38.85635 5.57755,45.81629 7.14397,9.36623 25.26862,11.00633 34.80077,3.14913 2.02385,-1.66823 4.67916,-4.90212 5.9007,-7.18642 2.15774,-4.03502 2.22944,-5.17116 2.51809,-39.90327 l 0.29711,-35.75 13.51781,0 13.51782,0 -0.35876,37.75 c -0.34236,36.02585 -0.45973,38.02039 -2.56958,43.67009 -1.21596,3.25605 -3.3176,7.80865 -4.67031,10.11689 -3.28862,5.6116 -12.31,13.71844 -18.79889,16.89316 -10.57902,5.17584 -25.83593,6.80259 -38.32138,4.08599 z M 1024.5,886.20704 c -7.3089,-1.30889 -16.8656,-3.85609 -20.9149,-5.57456 -7.1624,-3.03958 -15.17163,-8.17383 -14.69372,-9.41925 0.64714,-1.68642 12.66592,-18.33985 13.69482,-18.97572 0.489,-0.30225 4.1572,0.99139 8.1515,2.87475 19.9944,9.42771 36.7401,8.75235 38.4118,-1.54917 0.9854,-6.07187 -2.5613,-8.6481 -19.4733,-14.14532 -22.3116,-7.25229 -31.5913,-12.86257 -36.48662,-22.05879 -2.89342,-5.4355 -3.07804,-18.89399 -0.35074,-25.56821 7.42646,-18.17398 31.96516,-26.13892 61.66116,-20.01446 8.8195,1.81891 24,8.06305 24,9.8718 0,0.41144 -3.1407,5.57301 -6.9794,11.47015 l -6.9794,10.72207 -6.0206,-3.03917 c -16.7756,-8.46829 -35.8901,-7.58344 -36.824,1.70467 -0.4795,4.76893 3.6116,7.36927 18.4218,11.70906 28.5474,8.36512 39.7216,17.20585 41.1108,32.52554 1.5354,16.93347 -8.1122,31.11941 -25.2292,37.09699 -5.8805,2.0536 -25.1643,3.50424 -31.5,2.36962 z m -934,-57.41627 0,-56 13.5,0 13.5,0 0,23.5 0,23.5 25,0 25,0 0,-23.5 0,-23.5 13.5,0 13.5,0 0,56 0,56 -13.5,0 -13.5,0 0,-22 0,-22 -25,0 -25,0 0,22 0,22 -13.5,0 -13.5,0 0,-56 z m 111,44.5 0,-11.5 43.96725,0 43.96725,0 0.28275,11.2313 0.28275,11.23131 29.06298,-55.48131 c 26.28631,-50.18064 29.29581,-55.4813 31.5,-55.4813 2.20172,0 5.26116,5.35373 31.68702,55.44935 16.0875,30.49714 29.25,55.58464 29.25,55.75 0,0.16536 -6.86998,0.30065 -15.26661,0.30065 l -15.26662,0 -6.87159,-15.25 c -11.81294,-26.21625 -22.98053,-49.75 -23.6081,-49.75 -0.69498,0 -13.14314,26.23634 -21.82529,46 -3.2618,7.425 -6.5048,14.7375 -7.20668,16.25 l -1.27614,2.75 -59.33949,0 -59.33948,0 0,-11.5 z m 188,-43.21229 c -15.675,-30.09087 -28.6455,-55.29051 -28.82332,-55.99919 -0.25294,-1.00801 2.90784,-1.28852 14.51873,-1.28852 l 14.84206,0 10.3944,22.25 c 5.71693,12.2375 12.41364,26.87745 14.88159,32.53323 2.46794,5.65577 4.92558,10.13709 5.46141,9.95848 0.53583,-0.17861 3.30559,-5.70606 6.15501,-12.28323 2.84943,-6.57716 9.41027,-21.07098 14.57966,-32.20848 l 9.39889,-20.25 30.21474,0 30.21474,0 8.74817,15.25 c 4.81149,8.3875 10.03548,17.8375 11.60887,21 1.57339,3.1625 3.21484,5.75 3.64767,5.75 0.43282,0 1.57659,-1.6875 2.5417,-3.75 0.96511,-2.0625 6.11095,-11.50129 11.43521,-20.97509 L 559,772.84059 l 15.35699,-0.0249 c 13.64518,-0.0221 15.28884,0.15268 14.74563,1.56827 -0.33625,0.87625 -9.6094,16.45177 -20.60699,34.61227 L 548.5,842.01531 l 0,21.38773 0,21.38773 -13.5,0 -13.5,0 0,-21.39679 0,-21.39679 -20.02715,-33.60321 c -11.01494,-18.48177 -20.19204,-33.60321 -20.39357,-33.60321 -0.20152,0 -13.3518,24.74559 -29.22284,54.99021 -26.36827,50.24862 -29.072,54.99098 -31.35644,54.99919 -2.29098,0.008 -4.88281,-4.56523 -31,-54.70169 z m 235,-1.28771 0,-56 13.5,0 13.5,0 0,56 0,56 -13.5,0 -13.5,0 0,-56 z m 34,0 0,-56 3.25,0.0497 c 2.74516,0.042 8.84206,4.61358 39.25,29.43049 l 36,29.38077 0.26488,-29.43049 0.26488,-29.43049 13.48512,0 13.48512,0 0,56.06036 0,56.06037 -3.39438,-0.31036 c -2.80921,-0.25686 -9.52552,-5.52533 -38.95876,-30.56037 -19.5604,-16.6375 -35.80792,-30.25 -36.10561,-30.25 -0.29769,0 -0.54125,13.725 -0.54125,30.5 l 0,30.5 -13.5,0 -13.5,0 0,-56 z m 113,30.08783 0,-26.08783 13.5,0 13.5,0 0,14.64181 0,14.64182 13.25,-0.55844 c 15.77729,-0.66496 20.81048,-2.17587 27.6084,-8.28779 7.18775,-6.4624 9.56941,-12.53621 9.58239,-24.4374 0.008,-7.65249 -0.41397,-10.42928 -2.17156,-14.27843 -3.35328,-7.34372 -9.12603,-13.74309 -14.76923,-16.3724 -4.85602,-2.26255 -5.79908,-2.32991 -32.75,-2.3394 l -27.75,-0.01 0,-11.58783 0,-11.58783 30.25,0.37472 c 29.97238,0.37128 30.32241,0.39999 38.14015,3.12781 10.38581,3.62389 15.88989,6.95191 22.58939,13.65857 19.88984,19.9111 19.89979,57.88461 0.0205,78.05434 -6.40617,6.49976 -13.69339,10.85541 -23.5,14.04622 -6.51212,2.11886 -9.10835,2.3059 -37.25,2.68363 l -30.25,0.40603 0,-26.08783 z m 348,-18.58783 0,-44.5 -17.5,0 -17.5,0 0,-11.5 0,-11.5 48.5,0 48.5,0 0,11.5 0,11.5 -17.5,0 -17.5,0 0,44.5 0,44.5 -13.5,0 -13.5,0 0,-44.5 z m 68,-11.57181 0,-56.0718 33.25,0.34477 c 31.5854,0.32752 33.5754,0.4591 39.75,2.62841 18.5255,6.50854 28.1367,20.87424 26.7016,39.91047 -0.8671,11.50118 -7.8089,23.6785 -15.8764,27.85038 -1.5539,0.80352 -2.8252,1.93648 -2.8252,2.5177 0,0.58122 5.4589,8.73373 12.1308,18.11668 6.672,9.38295 12.3495,17.89585 12.6167,18.91755 0.4581,1.75198 -0.3884,1.85527 -14.8809,1.81588 L 1263,884.7072 l -11,-16.43263 -11,-16.43263 -13.25,-0.0256 -13.25,-0.0256 0,16.5 0,16.5 -13.5,0 -13.5,0 0,-56.07181 z m 63.8955,-1.42819 c 4.9265,-2.90183 7.3173,-6.65889 7.8651,-12.35997 0.7105,-7.39512 -2.3947,-13.29894 -8.5707,-16.2948 -4.123,-1.99999 -6.5937,-2.3239 -20.4399,-2.67959 l -15.75,-0.40459 0,17.20376 0,17.20377 16.75,-0.33429 c 14.5773,-0.29093 17.1904,-0.59372 20.1455,-2.33429 z m 67.1045,36.10381 0,-21.3962 -19.5893,-32.85381 c -10.7741,-18.06959 -20.015,-33.6413 -20.5352,-34.6038 -0.8821,-1.63198 0.096,-1.75 14.5083,-1.75 l 15.4541,0 8.7482,15.25 c 4.8115,8.3875 10.0355,17.8375 11.6089,21 1.5733,3.1625 3.2148,5.75 3.6476,5.75 0.4328,0 1.5766,-1.6875 2.5417,-3.75 0.9651,-2.0625 6.111,-11.50129 11.4352,-20.97509 l 9.6805,-17.22509 15.357,-0.0249 c 13.6452,-0.0221 15.2888,0.15268 14.7456,1.56827 -0.3362,0.87625 -9.6094,16.45177 -20.607,34.61227 l -19.9956,33.01909 0,21.38773 0,21.38773 -13.5,0 -13.5,0 0,-21.39619 z m -1117,-34.10381 0,-10.5 37.5,0 37.5,0 0,10.5 0,10.5 -37.5,0 -37.5,0 0,-10.5 z m 0,-45 0,-11.5 44,0 44,0 0,11.5 0,11.5 -44,0 -44,0 0,-11.5 z"
         id="path3443"
         inkscape:connector-curvature="0" />
      <path
         style="fill:#4e4e4e"
         d="m 473.66376,1029.3245 c -13.08436,-14.9023 -19.487,-31.88407 -19.42973,-51.53373 0.0551,-18.90005 5.88412,-35.1186 17.54561,-48.8184 L 477,922.83955 l 7.80902,-0.0244 c 8.7329,-0.0273 8.59718,-0.44643 2.40549,7.42922 -16.01099,20.3655 -20.15995,51.92761 -10.14648,77.18663 2.49416,6.2915 8.12974,15.7583 13.45953,22.6098 l 2.13925,2.75 -7.97981,0 c -7.85299,0 -8.02819,-0.055 -11.02324,-3.4663 z m 495.00193,0.7163 c 7.26551,-7.8666 13.75005,-20.5816 16.95004,-33.23582 1.82466,-7.21555 2.0564,-10.34534 1.62635,-21.96439 -0.71389,-19.28772 -4.76886,-31.05219 -15.66495,-45.44792 l -4.99696,-6.6019 7.84355,0 c 7.80908,0 7.8586,0.0166 11.26676,3.78907 7.71019,8.53426 13.25429,18.41915 16.95842,30.23615 2.0058,6.39873 2.3355,9.49019 2.2906,21.47478 -0.047,12.45865 -0.3483,14.88077 -2.7391,22.00003 -3.36793,10.0285 -8.79111,19.7658 -15.00803,26.9468 l -4.80763,5.5532 -8.12946,0 -8.12946,0 2.53987,-2.75 z m -206.09424,-21.2455 c -2.43571,-6.0394 -4.23571,-11.17343 -4,-11.40892 0.2357,-0.23549 2.78427,-1.3566 5.66349,-2.49136 l 5.23493,-2.06319 1.54075,2.97947 c 0.84741,1.63871 2.01317,2.97947 2.59059,2.97947 1.9897,0 14.8406,-8.05788 22.28298,-13.97206 8.65573,-6.8784 15.80288,-15.12666 21.68149,-25.02184 2.28924,-3.85335 4.3472,-7.0061 4.57325,-7.0061 0.43396,0 14.6358,7.03338 15.17666,7.51615 0.45204,0.40349 -5.54094,11.01493 -9.87427,17.48385 -4.81136,7.18254 -17.70151,19.42765 -27.19377,25.83293 -9.88552,6.6707 -28.78931,16.1814 -32.11967,16.1597 -0.62034,0 -3.12073,-4.9486 -5.55643,-10.9881 z m -83.82145,7.8031 c -3.4375,-1.0897 -6.24899,-2.5047 -6.24776,-3.1444 10e-4,-0.6398 2.04842,-6.553 4.54931,-13.1406 4.30917,-11.35074 4.45293,-12.04983 2.74775,-13.36261 -3.68408,-2.83631 -9.99788,-5.007 -16.5493,-5.68966 l -6.75,-0.70335 0,-8.01976 0,-8.01977 9.51134,0.49751 c 7.95077,0.41588 10.5063,0.99065 15.57537,3.50312 l 6.06403,3.00561 1.01073,-2.61686 c 3.00487,-7.77985 6.83853,-18.604 6.83853,-19.30826 0,-0.44473 -8.7147,-0.8086 -19.36601,-0.8086 l -19.36601,0 -2.18493,5.99239 c -2.64805,7.26253 -9.89912,18.28653 -17.64698,26.82918 l -5.73342,6.32158 -5.85132,-5.79027 C 622.1331,978.959 619.5,975.86507 619.5,975.26824 c 0,-0.59682 1.6104,-2.63591 3.57866,-4.5313 8.34304,-8.03415 16.72587,-23.59299 18.09557,-33.58606 l 0.59762,-4.36011 -4.02894,0 c -4.58873,0 -5.24291,-0.92786 -5.24291,-7.4363 l 0,-4.27273 12.74904,-0.55059 c 7.01197,-0.30282 13.08697,-0.34173 13.5,-0.0865 0.41303,0.25527 0.75096,2.90616 0.75096,5.89086 l 0,5.42674 30.8797,0.26424 30.87971,0.26425 -16.12731,43.25 c -14.04272,37.65956 -16.38613,43.23636 -18.1297,43.14446 -1.10132,-0.058 -4.8149,-0.9971 -8.2524,-2.0868 z m 226.75,-4.3495 0,-6.4581 4.94098,0 c 2.71754,0 5.12563,-0.3375 5.35131,-0.75 0.22567,-0.4125 -0.17115,-10.42503 -0.88184,-22.25003 -0.71069,-11.825 -1.31877,-22.28003 -1.3513,-23.2334 -0.0543,-1.59198 -2.20066,-1.75514 -26.30915,-2 l -26.25,-0.2666 -0.28893,-8.75 -0.28894,-8.75 26.14302,0 26.14301,0 -0.70816,-8 -0.70816,-8 6.85408,-0.0137 c 3.76974,-0.008 7.86658,-0.285 9.10408,-0.61664 2.00615,-0.53762 2.25094,-0.23811 2.25869,2.76366 0.005,1.85165 0.29056,5.71305 0.63506,8.58089 l 0.62637,5.21426 9.11494,0.28574 9.11494,0.28574 0,8.5 0,8.5 -8.75,0.28893 c -7.48578,0.24719 -8.74769,0.53615 -8.73398,2 0.009,0.94109 0.6766,12.73607 1.48398,26.21107 2.03814,34.01618 2.32182,30.77788 -2.75,31.39248 -2.3375,0.2833 -8.8625,0.742 -14.5,1.0194 l -10.25,0.5044 0,-6.4581 z m -387.20044,-2.307 c -5.33524,-4.2081 -9.72274,-8.0254 -9.75,-8.4828 -0.0273,-0.4575 1.57693,-2.81665 3.56485,-5.24265 l 3.61442,-4.41092 3.01148,2.53399 c 1.65631,1.39369 3.43046,2.39433 3.94256,2.22363 0.51209,-0.1707 9.89593,-11.55182 20.85296,-25.29137 l 19.92188,-24.98101 -25.47886,-0.26688 -25.47885,-0.26688 0,-8.48312 0,-8.48312 44.12244,0 c 35.14547,0 43.9263,0.25432 43.15837,1.25 -0.53025,0.6875 -7.80638,9.66916 -16.1692,19.95926 l -15.20511,18.70925 1.54367,2.98513 c 4.59337,8.88259 17.82085,20.66586 30.28221,26.97589 l 4.23238,2.1431 -2.31808,5.2387 c -1.27494,2.8813 -2.96711,6.4762 -3.76037,7.9887 l -1.44229,2.7501 -9.04678,-4.516 c -11.50206,-5.7417 -20.74373,-13.36274 -26.42934,-21.79472 -2.45735,-3.64434 -4.71411,-6.64032 -5.01503,-6.65774 -0.30092,-0.0174 -6.54668,7.40278 -13.87946,16.48936 -7.33279,9.0865 -13.61158,16.692 -13.95287,16.9011 -0.3413,0.2091 -4.98574,-3.0629 -10.32098,-7.271 z m 344.87164,5.5989 c -3.56442,-5.8331 -6.81473,-11.938 -6.50936,-12.2262 0.18599,-0.1755 3.26316,-2.019 6.83816,-4.09665 13.246,-7.69801 23.03469,-19.5399 27.48057,-33.24472 0.98762,-3.04441 2.21543,-5.14071 2.87223,-4.90388 0.63096,0.22752 4.22906,1.23671 7.99578,2.24265 3.76672,1.00594 7.05427,2.36501 7.30567,3.02015 0.82221,2.14263 -3.7129,13.80831 -8.15179,20.96889 -2.39014,3.85565 -7.44842,10.00569 -11.24061,13.66676 -6.66357,6.4331 -21.47855,16.8226 -23.9888,16.8228 -0.67482,10e-5 -1.84565,-1.0123 -2.60185,-2.2498 z M 757.25,976.04247 l -16.75,-0.30006 0,-8.47582 0,-8.47582 23.5,0 23.5,0 -0.0136,6.75 c -0.0224,11.05943 -0.17492,11.28817 -7.35298,11.02588 -3.37335,-0.12327 -13.67087,-0.35915 -22.88337,-0.52418 z m 9.25,-30.66559 c -11.275,-2.87762 -21.69852,-5.53549 -23.16339,-5.90639 l -2.66338,-0.67435 2.21051,-8.25268 c 1.21578,-4.53898 2.6393,-8.19636 3.16338,-8.12752 1.753,0.23028 47.94843,11.6155 48.2686,11.89617 0.17365,0.15223 -0.13355,2.0097 -0.68268,4.12772 -0.54912,2.11802 -1.49604,5.76344 -2.10427,8.10094 -0.77701,2.9862 -1.61479,4.22296 -2.81731,4.15907 -0.9413,-0.05 -10.93646,-2.44534 -22.21146,-5.32296 z m 60.05927,-3.33611 c -0.63033,-3.7125 -1.36225,-7.47575 -1.62649,-8.36278 -0.37561,-1.26085 0.67035,-1.84115 4.79339,-2.65934 2.9006,-0.57562 5.37795,-0.94575 5.50521,-0.82251 0.1795,0.17382 3.26771,15.53883 3.26845,16.26177 1.6e-4,0.16021 -9.72881,2.33286 -10.4464,2.33286 -0.19146,0 -0.86384,-3.0375 -1.49416,-6.75 z m -14.48695,-1.14793 c -1.38247,-4.72684 -2.5982,-14.47185 -1.89027,-15.15185 0.44987,-0.43213 2.88286,-1.08792 5.40664,-1.45731 l 4.5887,-0.67162 1.1613,7.03198 c 1.66488,10.08122 1.77782,9.75981 -3.81825,10.86629 -4.25333,0.84099 -5.0479,0.75093 -5.44812,-0.61749 z M 921.5,885.22417 c -19.86395,-4.30161 -34.9333,-19.9512 -37.9713,-39.4334 -0.55747,-3.575 -1.01699,-21.4625 -1.02115,-39.75 l -0.008,-33.25 13.45289,0 13.45289,0 0.29711,35.75 c 0.28865,34.73211 0.36035,35.86825 2.51809,39.90327 4.69599,8.78161 13.30113,13.02013 24.5935,12.11369 7.17166,-0.57568 10.97305,-2.25814 15.45131,-6.8386 5.89072,-6.02518 6.23421,-8.59306 6.23421,-46.6065 l 0,-34.32186 13.5,0 13.5,0 -0.0174,34.25 c -0.019,37.49066 -0.60519,43.01282 -5.66444,53.36251 -9.71876,19.88162 -33.79927,30.13056 -58.3182,24.82089 z m 101.0393,0.46565 c -11.4698,-1.75938 -26.43808,-7.629 -32.22882,-12.63809 -1.55992,-1.34936 -1.29888,-2.02336 3.40297,-8.78663 2.80086,-4.02884 6.03981,-8.51323 7.19765,-9.96531 l 2.1052,-2.64015 7.4919,3.53397 c 13.3487,6.29672 26.061,8.2664 33.4434,5.18182 5.8098,-2.42749 7.5452,-9.41731 3.2984,-13.28538 -3.3142,-3.01864 -5.7429,-4.08813 -18.0783,-7.96073 -28.9657,-9.09357 -38.14822,-17.48438 -38.12573,-34.83855 0.0228,-17.59451 10.35783,-28.82056 30.47763,-33.10541 8.9658,-1.9094 23.7096,-1.43921 34.9764,1.11542 7.7262,1.75183 18.902,6.46211 20.8224,8.77597 0.8259,0.99514 -0.6028,3.85836 -5.9393,11.90269 l -7.0268,10.59234 -5.6781,-2.87944 c -15.0897,-7.65209 -34.8846,-7.90388 -36.751,-0.46747 -1.0313,4.10893 0.3319,7.38996 3.8197,9.19356 1.7698,0.91521 9.0758,3.4305 16.2355,5.58953 17.1592,5.1744 24.7839,8.91872 31.174,15.30874 4.0499,4.04991 5.588,6.50681 6.901,11.02364 4.0211,13.83185 -2.2506,30.02205 -14.7287,38.02232 -9.3472,5.99288 -27.4846,8.67481 -42.7894,6.32716 z M 90.5,828.79077 l 0,-56 13.5,0 13.5,0 0,23.5 0,23.5 25,0 25,0 0,-23.5 0,-23.5 13.5,0 13.5,0 0,56 0,56 -13.5,0 -13.5,0 0,-22 0,-22 -25,0 -25,0 0,22 0,22 -13.5,0 -13.5,0 0,-56 z m 111,44.5 0,-11.5 44,0 44,0 0,11.5 0,11.5 -44,0 -44,0 0,-11.5 z m 89.03434,10.75 c 0.0189,-0.4125 13.04189,-25.5 28.94002,-55.75 25.05129,-47.66611 29.20402,-55 31.14311,-55 2.25962,0 6.35685,7.44471 52.97167,96.25 l 8.00488,15.25 -15.09545,0 -15.09545,0 -5.5431,-11.75 c -3.0487,-6.4625 -6.5984,-14.225 -7.88822,-17.25 -6.62787,-15.54431 -16.48065,-35.5 -17.52752,-35.5 -1.19794,0 -7.9387,14.04684 -22.43426,46.75 l -7.86763,17.75 -14.82119,0 c -8.15166,0 -14.80575,-0.3375 -14.78686,-0.75 z m 126.65503,-1.43873 C 414.99031,879.06515 360.5,774.05335 360.5,773.35229 c 0,-0.33824 6.62086,-0.49046 14.71301,-0.33825 l 14.71302,0.27673 9.24082,19.5 c 5.08246,10.725 11.84727,25.4625 15.03291,32.75 3.18565,7.2875 6.07635,13.25 6.42379,13.25 0.34743,0 2.51235,-4.3875 4.81093,-9.75 2.29858,-5.3625 8.99115,-20.20493 14.87238,-32.98317 L 451,772.82442 l 30.13953,-0.0168 30.13952,-0.0168 10.01728,17.75 c 5.5095,9.7625 10.90547,19.53298 11.99105,21.71218 l 1.97377,3.96219 3.56741,-6.96219 c 1.96207,-3.8292 7.31726,-13.48718 11.90042,-21.46218 l 8.33301,-14.5 15.21901,-0.27605 c 8.37045,-0.15182 15.219,0.004 15.219,0.34622 0,0.34224 -9.225,15.83567 -20.5,34.42983 l -20.5,33.80757 0,21.59621 0,21.59622 -13.5,0 -13.5,0 -0.0314,-21.75 -0.0314,-21.75 -19.71859,-32.91458 c -10.84523,-18.10302 -20.14116,-32.88524 -20.65763,-32.84938 -0.51646,0.0359 -13.79507,24.52242 -29.508,54.41458 -30.24346,57.53491 -30.80141,58.38994 -34.36359,52.66065 z M 624.5,828.79077 l 0,-56 13.5,0 13.5,0 0,56 0,56 -13.5,0 -13.5,0 0,-56 z m 34,0 0,-56 2.92435,0 c 2.34684,0 10.09797,5.83481 39.25,29.5462 L 737,831.88318 l 0.26488,-29.54621 0.26488,-29.5462 13.48512,0 13.48512,0 0,56 0,56 -2.94121,0 c -2.40727,0 -9.44187,-5.53244 -38.75,-30.47539 -19.69484,-16.76147 -36.14629,-30.48647 -36.55879,-30.5 -0.4125,-0.0135 -0.75,13.70039 -0.75,30.47539 l 0,30.5 -13.5,0 -13.5,0 0,-56 z m 113,30 0,-26 13.5,0 13.5,0 0,14.5 0,14.5 10.75,-0.0156 c 5.9125,-0.009 13.29135,-0.61379 16.39745,-1.34488 11.61738,-2.73442 19.39153,-9.83039 22.51198,-20.54814 2.11557,-7.26627 1.44329,-19.91156 -1.39681,-26.2736 -2.93084,-6.56533 -11.73503,-15.34497 -16.76262,-16.7159 -2.42906,-0.66236 -14.702,-1.09292 -31.25,-1.0963 l -27.25,-0.006 0,-11.5889 0,-11.58891 29.75,0.44609 c 32.9728,0.49441 36.16396,0.98043 48.34872,7.36362 12.13717,6.35825 21.32162,17.82879 25.51675,31.8681 2.44536,8.18357 2.44536,24.81643 0,33 -4.44247,14.86703 -13.62435,25.90818 -27.11654,32.60747 -11.71649,5.81761 -19.03326,6.81615 -50.24893,6.85764 l -26.25,0.0349 0,-26 z m 348,-18.5 0,-44.5 -17.5,0 -17.5,0 0,-11.5 0,-11.5 48.5,0 48.5,0 0,11.5 0,11.5 -17.5,0 -17.5,0 0,44.5 0,44.5 -13.5,0 -13.5,0 0,-44.5 z m 68,-11.5828 0,-56.08279 32.75,0.40658 c 34.7626,0.43157 37.4429,0.76698 47.642,5.96211 6.4837,3.30255 13.0968,10.27411 16.1854,17.06259 2.5007,5.49619 2.8294,7.35907 2.7768,15.73431 -0.088,13.96785 -4.4077,23.32345 -13.9255,30.15861 -2.8192,2.02456 -4.3925,3.85254 -4.1353,4.80462 0.2284,0.84522 5.8808,9.23913 12.5609,18.65313 6.6801,9.41399 12.1457,17.63821 12.1457,18.27604 0,0.84075 -4.1714,1.08377 -15.1676,0.88365 l -15.1675,-0.27605 -11.0462,-16.25 -11.0462,-16.25 -13.2863,0 -13.2862,0 0,16.5 0,16.5 -13.5,0 -13.5,0 0,-56.0828 z m 61.1008,-0.0533 c 4.5506,-1.52089 8.6012,-5.4309 9.9921,-9.64546 1.5679,-4.75084 0.656,-12.358 -1.9141,-15.96742 -3.9787,-5.58748 -7.878,-6.65149 -25.9288,-7.07518 l -16.25,-0.38141 0,17.10277 0,17.10277 15.3508,0 c 8.7981,0 16.8017,-0.48494 18.75,-1.13607 z m 69.8992,34.51867 0,-21.6174 -19.1572,-32.1326 c -10.5364,-17.67293 -19.8131,-33.1451 -20.615,-34.3826 l -1.4578,-2.25 15.5045,0 15.5046,0 10.0172,17.75 c 5.5095,9.7625 10.9055,19.53298 11.9911,21.71218 l 1.9737,3.96219 3.5675,-6.96219 c 1.962,-3.8292 7.3172,-13.48718 11.9004,-21.46218 l 8.333,-14.5 15.219,-0.27605 c 8.3704,-0.15182 15.219,0.004 15.219,0.34622 0,0.34224 -9.225,15.83567 -20.5,34.42983 l -20.5,33.80757 0,21.59621 0,21.59622 -13.5,0 -13.5,0 0,-21.6174 z m -1117,-33.8826 0,-10.5 37.5,0 37.5,0 0,10.5 0,10.5 -37.5,0 -37.5,0 0,-10.5 z m 0,-45 0,-11.5 44,0 44,0 0,11.5 0,11.5 -44,0 -44,0 0,-11.5 z"
         id="path3441"
         inkscape:connector-curvature="0" />
      <path
         style="fill:#242424"
         d="m 472.17387,1026.7198 c -11.07784,-12.2414 -17.72777,-30.3662 -17.78353,-48.4701 -0.0612,-19.86259 6.43571,-37.09349 19.21237,-50.95453 l 4.15201,-4.5044 7.33256,0 7.33255,0 -4.9267,6.50907 c -5.79974,7.66252 -11.13357,18.40887 -13.64481,27.49093 -2.5156,9.0978 -2.54969,32.83521 -0.0603,42 2.49897,9.20013 7.55376,19.39413 13.51217,27.25003 l 5.11966,6.75 -7.37601,0 -7.37601,0 -5.49394,-6.071 z m 495.32613,5.495 c 0,-0.363 1.31662,-2.1596 2.92583,-3.9923 8.63461,-9.8343 15.33032,-26.0378 17.0566,-41.2766 2.342,-20.67417 -3.02424,-40.85617 -15.10842,-56.82158 -2.6807,-3.54171 -4.87401,-6.64063 -4.87401,-6.88651 0,-0.24587 3.2625,-0.44682 7.25,-0.44655 l 7.25,4.9e-4 4.08119,4.74951 c 16.97671,19.75678 23.10931,44.97817 16.89361,69.47795 -2.2321,8.79789 -8.55931,21.11539 -14.77935,28.77159 l -5.28072,6.5 -7.70737,0.292 c -4.23905,0.1607 -7.70736,0 -7.70736,-0.368 z m -201.62071,-16.1002 c -0.86918,-2.1031 -2.89789,-6.9385 -4.50825,-10.7454 -1.61036,-3.8068 -2.57763,-7.26573 -2.14949,-7.6864 0.42815,-0.42067 2.9165,-1.67772 5.52966,-2.79343 l 4.75121,-2.02856 1.48848,3.56242 1.48847,3.56242 6.76032,-3.70323 c 15.79781,-8.65389 29.33503,-21.24951 37.6933,-35.0715 2.63416,-4.35608 4.91823,-8.06153 5.07571,-8.23433 0.70248,-0.77081 14.4913,6.97838 14.4913,8.14398 0,2.47542 -10.45109,18.82785 -15.83682,24.77927 -9.58873,10.59589 -25.44486,21.92516 -40.19261,28.71776 -13.00012,5.9877 -12.74609,5.9616 -14.59128,1.497 z M 679.5,1016.6081 c -3.575,-1.1098 -6.66576,-2.1759 -6.86835,-2.3692 -0.20259,-0.1933 1.72773,-6.0432 4.28959,-12.9997 3.54926,-9.63763 4.39123,-12.96946 3.53742,-13.99824 -2.30406,-2.77622 -9.96962,-5.56747 -16.88115,-6.14691 L 656.5,980.5007 l 0,-7.99367 0,-7.99367 8.92385,0.50881 c 7.18271,0.40954 10.20292,1.10737 15.47941,3.57653 3.60556,1.68725 6.79918,2.67353 7.09694,2.19174 0.87493,-1.41566 7.4998,-20.00933 7.4998,-21.04928 0,-0.56765 -7.76339,-0.95039 -19.27748,-0.95039 l -19.27747,0 -2.93686,6.74137 c -1.61527,3.70775 -4.78251,9.49372 -7.0383,12.8577 -4.96909,7.41021 -14.51173,18.40093 -15.97651,18.40093 -0.58393,0 -3.49019,-2.45904 -6.45835,-5.46453 l -5.39666,-5.46454 5.06706,-5.82572 C 634.4979,958.20247 641.5,944.29487 641.5,935.68543 c 0,-2.71044 -0.25457,-2.89466 -4,-2.89466 l -4,0 0,-5.9412 0,-5.9412 12.25,-0.3088 c 7.38186,-0.18608 12.54196,0.0886 12.98469,0.6912 0.40408,0.55 0.74158,3.1375 0.75,5.75 l 0.0153,4.75 30.5,0 c 23.76188,0 30.48818,0.27615 30.44647,1.25 -0.0294,0.6875 -7.12279,20.14496 -15.76301,43.23881 -10.51947,28.11682 -16.20074,42.04782 -17.19647,42.16752 -0.81784,0.098 -4.41199,-0.7292 -7.98699,-1.839 z m 226.42343,1.2728 c -0.23289,-0.2329 -0.42343,-2.7753 -0.42343,-5.6498 0,-5.8676 0.63882,-6.4403 7.18328,-6.4403 l 4.0197,0 -0.58225,-6.75003 c -0.32024,-3.7125 -0.83106,-12.15 -1.13515,-18.75 -0.3041,-6.6 -0.80694,-14.5875 -1.11743,-17.75 l -0.56452,-5.75 -26.44226,0 -26.44225,0 0.29044,-8.25 0.29044,-8.25 25.85228,-0.26709 25.85229,-0.26709 -0.35229,-7.73291 -0.35228,-7.73291 8.75,-0.28893 8.75,-0.28894 0.0136,5.78894 c 0.0246,10.41949 -0.10357,10.28893 10.10303,10.28893 l 8.88337,0 0,8.5 0,8.5 -8.5,0 -8.5,0 0,3.69137 c 0,2.03026 0.7002,15.35506 1.55599,29.61068 0.8558,14.25558 1.36756,26.10778 1.13726,26.33798 -0.57998,0.58 -27.74644,1.9735 -28.26982,1.4501 z m -45.3192,-7.268 -3.96365,-7.1779 6.63964,-3.88 c 13.94882,-8.15122 21.95551,-17.30364 26.93398,-30.78812 1.61782,-4.38196 3.13237,-6.97611 4.07288,-6.97611 0.82351,0 4.58684,0.92011 8.36295,2.04468 6.63157,1.97497 6.84354,2.13691 6.21733,4.75 -3.32261,13.86483 -13.10393,28.36324 -25.6702,38.04975 -5.52931,4.2622 -16.56205,11.1556 -17.85439,11.1556 -0.42619,0 -2.55853,-3.2301 -4.73854,-7.1779 z m -342.87368,-1.3911 c -9.88914,-8.0431 -9.77429,-7.7407 -5.04511,-13.28355 3.14847,-3.69018 3.89129,-3.82516 6.31456,-1.14748 0.99549,1.1 2.40601,2 3.13451,2 1.1491,0 41.36549,-49.0723 41.36549,-50.47445 0,-0.28905 -11.475,-0.52555 -25.5,-0.52555 l -25.5,0 0,-8.5 0,-8.5 44.05191,0 44.05191,0 -12.30191,15.09021 c -6.76605,8.29961 -14.0748,17.33107 -16.24167,20.06991 l -3.93975,4.9797 1.93975,3.61605 c 4.53811,8.45985 17.27772,19.66008 29.13296,25.61271 l 5.19321,2.60755 -3.34914,7.2306 c -1.84203,3.9768 -3.82227,7.3883 -4.40054,7.581 -0.57827,0.1928 -5.20869,-1.7967 -10.28981,-4.421 -10.29663,-5.318 -20.67824,-14.31204 -25.88397,-22.42447 -1.74429,-2.71824 -3.55038,-4.94226 -4.01353,-4.94226 -0.46315,0 -6.75538,7.3125 -13.98273,16.25003 -7.22735,8.9375 -13.664,16.3557 -14.30366,16.485 -0.63967,0.1293 -5.33428,-3.1575 -10.43248,-7.304 z M 740.5,967.29077 l 0,-8.5 23,0 23,0 0,8.5 0,8.5 -23,0 -23,0 0,-8.5 z m 24.6888,-22.48547 c -12.54616,-3.19198 -23.05402,-6.04642 -23.35081,-6.34321 -0.96545,-0.96544 2.99104,-15.67132 4.21623,-15.67132 1.45522,0 46.61583,10.98706 47.56058,11.57095 0.65078,0.40221 -0.11264,4.80498 -2.1985,12.67905 -0.54637,2.0625 -1.53854,3.70908 -2.20484,3.65907 -0.6663,-0.05 -11.4765,-2.70256 -24.02266,-5.89454 z m 62.84032,3.03259 c -0.77614,-1.25583 -2.85907,-15.0505 -2.34949,-15.56008 0.26314,-0.26314 2.50795,-0.75661 4.98848,-1.0966 l 4.51005,-0.61817 1.16092,5.78064 c 1.33737,6.65928 1.48562,10.43676 0.41092,10.47095 -0.4125,0.0131 -2.4399,0.41627 -4.50533,0.89589 -2.06543,0.47962 -3.96242,0.53694 -4.21555,0.12737 z m -15.87464,-7.69838 c -1.04307,-3.55149 -2.64568,-13.69088 -2.22969,-14.10686 0.79009,-0.7901 8.70242,-2.2813 9.49745,-1.78994 0.80979,0.50048 3.52469,15.44284 2.9135,16.03545 -0.18466,0.17904 -2.42881,0.63705 -4.98701,1.01781 -4.00751,0.59646 -4.72643,0.4364 -5.19425,-1.15646 z m 112.43976,-54.48088 c -11.21702,-1.65701 -21.16996,-6.87274 -28.64228,-15.00965 -5.2856,-5.7557 -7.80063,-9.99943 -10.58362,-17.85821 -2.2389,-6.32236 -2.30271,-7.4975 -2.33507,-43 l -0.0333,-36.5 13,0 13,0 0.5,36 c 0.54195,39.02063 0.45273,38.39566 6.39517,44.79703 7.94451,8.55806 26.94754,9.03282 35.94326,0.89798 1.03091,-0.93225 2.839,-3.49501 4.01798,-5.69501 2.04741,-3.82053 2.16602,-5.61522 2.64359,-40 l 0.5,-36 13,0 13,0 0.28938,31 c 0.39564,42.38358 -0.94861,50.70426 -10.22792,63.30931 -10.25486,13.93024 -30.171,21.05679 -50.46722,18.05855 z m 100.58436,0.12477 c -3.7517,-0.46265 -10.0517,-1.8166 -14,-3.00877 -8.0951,-2.44432 -20.62164,-8.67186 -21.37095,-10.62452 -0.37898,-0.98761 8.43938,-14.65053 12.65845,-19.61265 0.3523,-0.41431 3.8383,0.82206 7.7467,2.7475 9.8328,4.84408 18.0689,6.78593 26.8918,6.3404 9.0513,-0.45708 12.3954,-2.90039 12.3954,-9.05665 0,-5.89881 -3.0559,-8.00757 -19.3648,-13.36277 -29.8369,-9.7973 -38.99976,-17.88195 -39.00475,-34.41517 -0.006,-20.04632 13.79215,-32.31156 38.92265,-34.59837 7.7165,-0.70218 21.8101,0.81855 30.4469,3.28528 7.1924,2.0542 17,7.00712 17,8.58512 0,1.33019 -12.6787,20.72797 -13.5481,20.72797 -0.2851,0 -2.7459,-1.12875 -5.4683,-2.50833 -11.1474,-5.64882 -27.4392,-7.34042 -33.7336,-3.50263 -2.7819,1.69618 -3.25,2.5493 -3.25,5.92368 0,5.0469 2.4038,7.01832 12.1796,9.98862 31.679,9.62548 39.0524,13.74179 44.4775,24.83026 6.8843,14.07104 0.6547,33.72704 -13.2769,41.89145 -9.6578,5.65986 -25.2157,8.15591 -39.7016,6.36958 z M 90.5,828.79077 l 0,-56.05805 13.25,0.27902 13.25,0.27903 0.26843,23.25 0.26843,23.25 24.96314,0 24.96314,0 0.26843,-23.25 0.26843,-23.25 13,0 13,0 0,55.5 0,55.5 -13,0 -13,0 -0.2695,-21.75 -0.26951,-21.75 -24.96099,0 -24.96099,0 -0.26951,21.75 -0.2695,21.75 -13.25,0.27903 -13.25,0.27902 0,-56.05805 z m 111.43025,54.67882 c -0.27884,-0.72665 -0.37722,-5.78915 -0.21862,-11.25 L 202,862.29077 l 43.5,0 43.5,0 0.28275,11.25 0.28275,11.25 -43.56413,0 c -35.18058,0 -43.6617,-0.25425 -44.07112,-1.32118 z m 88.73642,0.47884 c 0.18333,-0.46329 13.35962,-25.68295 29.28064,-56.0437 23.97825,-45.72557 29.2729,-55.15094 30.84406,-54.90766 1.39258,0.21563 9.58034,14.90212 30.8027,55.25119 15.89826,30.22661 28.90593,55.32614 28.90593,55.77673 0,0.45059 -6.59801,0.69472 -14.66223,0.54251 l -14.66224,-0.27673 -7.89923,-17.5 c -14.47265,-32.06281 -21.38655,-46.37008 -22.60418,-46.77596 -1.25801,-0.41934 -11.51503,20.25846 -19.48244,39.27596 -1.38254,3.3 -4.55221,10.3875 -7.0437,15.75 l -4.52999,9.75 -14.64133,0 c -8.05273,0 -14.49133,-0.37905 -14.30799,-0.84234 z M 412.18359,872.59896 C 399.68076,848.88661 360.5,773.45653 360.5,773.09868 c 0,-0.19876 6.58096,-0.23685 14.62436,-0.0846 l 14.62437,0.27673 9.17536,19.5 c 5.04645,10.725 11.82132,25.47305 15.05527,32.77345 3.23395,7.30041 6.33247,13.12261 6.8856,12.93823 0.55313,-0.18438 2.68116,-4.35743 4.72897,-9.27346 2.0478,-4.91602 8.63437,-19.51322 14.63682,-32.43822 l 10.91356,-23.5 29.54322,-0.26467 c 22.86004,-0.2048 29.78057,0.0214 30.5924,1 1.81161,2.18371 19.10397,32.71379 21.15334,37.34671 1.07485,2.42988 2.36123,4.41796 2.85863,4.41796 0.49739,0 1.75414,-1.9125 2.79277,-4.25 1.03864,-2.3375 6.31702,-12.0125 11.72975,-21.5 l 9.84132,-17.25 14.98115,0 c 8.23963,0 14.804,0.3375 14.58749,0.75 -0.2165,0.4125 -9.35556,15.6 -20.30901,33.75 l -19.91537,33 -0.5,22 -0.5,22 -13,0 -13,0 -0.5,-22.0631 -0.5,-22.0631 -19.89734,-33.20623 c -10.94353,-18.26343 -20.08215,-33.02141 -20.30805,-32.79552 -0.22589,0.2259 -13.38559,25.0971 -29.24377,55.26933 -22.24105,42.31645 -29.2954,54.92908 -30.85529,55.16681 -1.66791,0.2542 -3.15927,-1.84829 -8.51196,-12 z m 212.78673,10.97184 c -0.26947,-0.70402 -0.37303,-25.80503 -0.23013,-55.78003 l 0.25981,-54.5 13,0 13,0 0,55.5 0,55.5 -12.76986,0.28003 c -9.66147,0.21186 -12.88913,-0.0316 -13.25982,-1 z m 34,0 c -0.26947,-0.70402 -0.37303,-25.80503 -0.23013,-55.78003 l 0.25981,-54.5 2.5,-0.27423 c 1.98059,-0.21725 10.02525,5.8599 38.71988,29.25 19.92093,16.23833 36.45163,29.52423 36.73489,29.52423 0.28326,0 0.63432,-13.1625 0.78013,-29.25 l 0.2651,-29.25 13,0 13,0 0,55.5 0,55.5 -2.5,0.27001 c -2.00404,0.21645 -9.74098,-5.89132 -39,-30.7878 l -36.5,-31.05781 -0.5,30.7878 -0.5,30.7878 -12.76986,0.28003 c -9.66147,0.21186 -12.88913,-0.0316 -13.25982,-1 z m 113.02567,0.0701 c -0.29293,-0.76335 -0.41186,-12.40442 -0.26429,-25.86903 l 0.2683,-24.4811 13,0 13,0 0.27814,14.36271 0.27815,14.36271 13.72185,-0.47677 c 16.58202,-0.57615 21.53703,-2.09279 28.24675,-8.6458 6.27318,-6.12667 8.97511,-13.38277 8.97511,-24.10285 0,-10.30676 -2.69529,-17.69084 -8.86498,-24.28674 -7.81351,-8.35327 -6.88231,-8.14856 -39.63502,-8.71326 l -29,-0.5 0,-11 0,-11 28.5,0.0706 c 23.92314,0.0593 29.54385,0.35334 35,1.83103 20.10199,5.44422 33.17712,17.54841 38.99397,36.09833 3.07322,9.80048 3.07322,25.19952 0,35 -5.7328,18.2819 -19.06323,30.78265 -38.49397,36.09812 -8.42687,2.30526 -63.18878,3.37649 -64.00401,1.25202 z m 348.19911,0.51161 c -0.3823,-0.38228 -0.6951,-20.42007 -0.6951,-44.52841 l 0,-43.83333 -17.5,0 -17.5,0 0,-11.5096 0,-11.50961 48.25,0.25961 48.25,0.2596 0.2828,11.25 0.2827,11.25 -17.5223,0 -17.5224,0 -0.2604,44.25 -0.2604,44.25 -12.5549,0.27842 c -6.9052,0.15313 -12.8677,-0.0344 -13.25,-0.41667 z m 67.7752,-0.58172 c -0.2695,-0.70401 -0.373,-25.80502 -0.2301,-55.78002 l 0.2598,-54.5 31,0.005 c 22.9132,0.004 32.4348,0.363 36.5,1.37692 20.5021,5.11347 31.2744,17.91812 31.2264,37.11792 -0.031,12.43926 -2.6045,18.60483 -11.3762,27.25643 -3.7676,3.71604 -6.8502,7.18035 -6.8502,7.69848 0,0.51812 5.625,8.85453 12.5,18.52536 6.875,9.67083 12.5,18.01902 12.5,18.55153 0,0.58081 -5.9428,0.9682 -14.8527,0.9682 l -14.8527,0 -11.2046,-16.5 -11.2047,-16.5 -13.4179,0 -13.4179,0 -0.2747,16.25 -0.2748,16.25 -12.7699,0.28003 c -9.6614,0.21186 -12.8891,-0.0316 -13.2598,-1 z m 63.5678,-56.03002 c 5.6037,-2.82578 7.9582,-7.21877 7.9603,-14.85212 0,-6.58585 -2.5342,-11.13188 -8.0018,-14.34381 -3.0746,-1.80618 -5.518,-2.09441 -20.2466,-2.38836 l -16.75,-0.33429 0,17.08429 0,17.08429 16.2881,0 c 14.9027,0 16.6676,-0.19138 20.75,-2.25 z m 67.657,56.61175 c -0.3823,-0.38229 -0.6951,-10.26296 -0.6951,-21.95704 l 0,-21.26196 -19.4874,-32.45676 c -10.7181,-17.85122 -19.7662,-33.18334 -20.107,-34.07138 -0.5527,-1.44035 0.9437,-1.61461 13.865,-1.61461 10.3679,0 14.7792,0.35526 15.5215,1.25 1.8026,2.17281 19.0996,32.71666 21.1412,37.33204 1.0748,2.42988 2.3612,4.41796 2.8586,4.41796 0.4974,0 1.7541,-1.9125 2.7928,-4.25 1.0386,-2.3375 6.317,-12.0125 11.7297,-21.5 l 9.8413,-17.25 14.9812,0 c 8.2396,0 14.804,0.3375 14.5875,0.75 -0.2165,0.4125 -9.3556,15.6 -20.309,33.75 l -19.9154,33 -0.5,22 -0.5,22 -12.5549,0.27842 c -6.9052,0.15313 -12.8677,-0.0344 -13.25,-0.41667 z M 201.92719,838.46163 c -0.28052,-0.73103 -0.3789,-5.34353 -0.21861,-10.25 L 202,819.29077 l 37.25,-0.26217 37.25,-0.26217 0,10.51217 0,10.51217 -37.03138,0 c -29.87863,0 -37.12991,-0.25673 -37.54143,-1.32914 z m 0.007,-43.9814 c -0.28109,-0.7325 -0.3813,-5.79979 -0.2227,-11.26064 L 202,773.29077 l 43.5,0 43.5,0 0,11 0,11 -43.2773,0.26064 c -35.29962,0.2126 -43.37151,0.0151 -43.78837,-1.07118 z"
         id="path3439"
         inkscape:connector-curvature="0" />
      <path
         style="fill:#000000"
         d="m 474.19224,1028.5879 c -13.21257,-13.8893 -20.64137,-34.92513 -19.34438,-54.77666 1.10668,-16.93852 6.13238,-30.18408 16.28996,-42.93325 l 5.64657,-7.08722 7.43573,0 7.43573,0 -3.32793,3.88804 c -8.85684,10.34754 -15.05725,25.33601 -17.11096,41.36295 -2.49477,19.46884 3.78164,42.31954 15.72461,57.24904 5.33948,6.6747 5.39424,6.5 -2.03739,6.5 -6.58599,0 -6.79,-0.08 -10.71194,-4.2029 z M 968.5,1032.2936 c 0,-0.2735 2.0449,-3.275 4.54423,-6.6701 5.50554,-7.4788 10.67974,-18.0639 13.11627,-26.83273 1.37634,-4.95329 1.80285,-10.06934 1.79237,-21.5 -0.0131,-14.24917 -0.17318,-15.46072 -3.19889,-24.20416 -3.41185,-9.8593 -7.12457,-16.94535 -12.86073,-24.54584 l -3.58487,-4.75 7.07382,0 7.07381,0 5.36191,6.50049 c 5.7898,7.01924 11.30139,17.43547 14.28638,26.99951 1.483,4.75174 1.8704,9.12064 1.862,21 -0.01,14.23038 -0.1702,15.44952 -3.1232,23.76123 -3.66998,10.3302 -8.02867,17.8495 -14.67309,25.3132 l -4.82998,5.4256 -6.42002,0 c -3.531,0 -6.42001,-0.2238 -6.42001,-0.4972 z M 680,1016.2414 c -3.85,-1.2924 -7.06765,-2.3725 -7.15034,-2.4002 -0.0827,-0.028 1.82982,-5.2693 4.25,-11.6479 2.42019,-6.37853 4.3862,-12.34103 4.36892,-13.24995 -0.0718,-3.77842 -10.04838,-8.15258 -18.59431,-8.15258 l -5.37427,0 0,-8 0,-8 2.75,0.0201 c 6.4309,0.047 15.53825,1.9971 21.20612,4.54069 3.34699,1.50204 6.33979,2.47663 6.65066,2.16575 1.24885,-1.24884 8.36753,-21.95909 7.84086,-22.81126 -0.31112,-0.5034 -9.35625,-0.91528 -20.10028,-0.91528 -18.99176,0 -19.54983,0.0582 -20.08271,2.09598 -2.20045,8.41453 -11.49162,23.13328 -20.61683,32.66044 l -4.07684,4.25643 -5.72327,-5.66355 -5.72327,-5.66355 5.73021,-6.34901 c 9.67961,-10.72489 15.72801,-22.69532 16.36453,-32.38716 L 642,932.46461 l -4,-0.0869 -4,-0.0869 -0.29699,-5.09816 -0.297,-5.09816 8.297,-0.64585 c 4.56334,-0.35521 10.18703,-0.64854 12.49709,-0.65184 l 4.20009,-0.006 0.29991,5.75 0.2999,5.75 30.57668,0.5 30.57667,0.5 -15.95505,42.75 c -8.77528,23.5125 -16.23479,42.7051 -16.57668,42.6502 -0.34189,-0.055 -3.77162,-1.1572 -7.62162,-2.4496 z m 86.59852,0.404 c -0.51234,-1.295 -2.31911,-5.679 -4.01503,-9.7422 -1.69592,-4.0631 -3.08349,-7.79161 -3.08349,-8.28551 0,-0.74915 8.13955,-4.82692 9.63492,-4.82692 0.25802,0 0.93973,1.35 1.51492,3 1.24644,3.57553 1.6939,3.62923 7.14,0.85661 15.1291,-7.70221 29.19446,-20.34307 38.24753,-34.37391 3.18774,-4.94049 5.95395,-9.17824 6.14713,-9.41724 0.40934,-0.50641 14.3155,6.09135 14.3155,6.79197 0,0.25907 -2.1375,4.29584 -4.75,8.97061 -9.10953,16.30043 -27.29659,32.54949 -47.75,42.66189 -14.06299,6.9528 -16.16862,7.481 -17.40148,4.3647 z m 94.48213,-6.0929 c -2.48927,-4.5517 -3.48797,-7.2926 -2.7472,-7.5396 0.64014,-0.2133 4.42699,-2.5234 8.41522,-5.13342 12.60823,-8.25124 21.01199,-19.05047 24.82599,-31.90259 1.42555,-4.80369 0.68528,-4.70778 11.76825,-1.5247 l 5.34291,1.53452 -0.65918,3.65203 c -0.36256,2.00862 -2.40075,7.27884 -4.52933,11.71162 -6.02085,12.53845 -18.40083,25.00734 -33.02152,33.25884 l -5.48405,3.095 -3.91109,-7.1517 z m 45.40834,5.525 c -0.006,-0.9827 -0.2858,-3.4488 -0.62167,-5.4803 l -0.61067,-3.6935 5.37167,-0.3065 5.37168,-0.3064 -0.30446,-15.50003 c -0.16745,-8.525 -0.61745,-19.55 -1,-24.5 l -0.69554,-9 -26.25,-0.2666 -26.25,-0.26661 0,-7.96651 0,-7.96652 25.75,-0.26688 25.75,-0.26688 -0.35017,-7.60299 -0.35017,-7.60299 7.71475,-0.6991 c 4.24312,-0.3845 7.97935,-0.4345 8.30273,-0.11111 0.32339,0.32339 0.83433,4.05933 1.13542,8.30208 l 0.54744,7.71411 9.25,0.28753 9.25,0.28752 0,7.96248 0,7.96247 -8.44098,0 c -4.64254,0 -8.64999,0.33818 -8.90544,0.75151 -0.25545,0.41333 0.25484,13.67648 1.13398,29.47367 0.87914,15.79715 1.39908,28.89775 1.15544,29.11225 -0.24365,0.2146 -6.4055,0.693 -13.693,1.0631 -12.30487,0.625 -13.25079,0.5455 -13.26101,-1.1138 z m -388.1495,-6.9877 -9.6605,-7.6809 3.52492,-4.30167 3.52492,-4.3017 2.96231,2.49262 c 1.62927,1.37094 3.33508,2.49262 3.79069,2.49262 1.29213,0 41.96886,-51.27076 41.40305,-52.18626 -0.2766,-0.44756 -11.72636,-0.81374 -25.4439,-0.81374 l -24.94098,0 0,-8 0,-8 43.05902,0 c 34.17565,0 42.90618,0.25788 42.31818,1.25 -0.40746,0.6875 -5.52829,7.1 -11.37964,14.25 -5.85134,7.15 -12.74649,15.60743 -15.32255,18.79428 l -4.68376,5.79429 2.25438,4.09903 c 3.91852,7.12489 15.5123,17.85966 25.0384,23.18325 4.79379,2.67897 8.71597,4.99098 8.71597,5.13768 0,0.3208 -6.21472,13.8465 -6.58395,14.3293 -0.61313,0.8017 -18.40611,-9.1941 -23.47657,-13.1888 -3.05828,-2.4095 -8.1969,-7.88377 -11.41915,-12.16514 l -5.85864,-7.78431 -1.96302,2.40021 c -1.07965,1.32011 -7.34112,9.03771 -13.91437,17.15024 -6.57325,8.1125 -12.02627,14.7454 -12.11783,14.7399 -0.0916,-0.01 -4.5137,-3.4665 -9.82698,-7.6909 z M 741.5,967.3099 l 0,-8.51913 14.25,0.006 c 7.8375,0.003 17.9802,0.29636 22.53934,0.65125 l 8.28934,0.64526 -0.28934,7.59875 -0.28934,7.59874 -22.25,0.26913 -22.25,0.26913 0,-8.51913 z M 764,944.04937 c -12.1,-3.05522 -22.09215,-5.61793 -22.20479,-5.6949 -0.26885,-0.18372 3.45387,-14.64701 3.87826,-15.06754 0.43407,-0.43012 46.60223,10.9462 47.31493,11.65891 0.30504,0.30503 -0.21707,3.76993 -1.16023,7.69977 -1.45349,6.05623 -2.02828,7.13095 -3.7715,7.05194 C 786.9255,949.64628 776.1,947.1046 764,944.04937 Z m 64.01489,1.53126 c -2.81393,-11.86169 -2.53912,-13.57377 2.23511,-13.92455 1.2375,-0.0909 2.78601,-0.21031 3.44113,-0.26531 1.35183,-0.11349 4.19381,13.45709 3.03679,14.50079 -0.40036,0.36115 -2.40234,0.95415 -4.44886,1.31778 -3.31501,0.58903 -3.78021,0.41134 -4.26417,-1.62871 z m -14.99315,-4.97091 c -0.91894,-2.58757 -2.47327,-10.35584 -2.49729,-12.48105 -0.0199,-1.75529 0.74086,-2.2914 4.04293,-2.84928 2.23707,-0.37795 4.27223,-0.48235 4.52258,-0.23199 0.25036,0.25036 1.06859,3.67438 1.81828,7.60893 l 1.36308,7.15373 -2.63566,0.5833 c -1.44961,0.32082 -3.42538,0.7975 -4.39059,1.05931 -0.9652,0.2618 -1.9657,-0.11753 -2.22333,-0.84295 z M 920.143,884.27268 c -16.40624,-4.1573 -28.02141,-14.51531 -33.90262,-30.23318 -2.03191,-5.43041 -2.17097,-7.81133 -2.51132,-42.99873 l -0.36031,-37.25 12.56563,0 12.56562,0 0,32.8185 c 0,36.32721 0.43372,39.64804 6.068,46.46052 4.94183,5.97523 10.0248,8.10924 19.432,8.15822 8.86134,0.0461 13.73105,-1.80802 18.63584,-7.09566 6.39235,-6.89131 6.33496,-6.50348 6.67253,-45.09158 l 0.30837,-35.25 12.44163,0 12.44163,0 -0.0148,34.75 c -0.0115,27.12425 -0.33914,36.12574 -1.49286,41.01916 -3.78273,16.04414 -14.36657,27.76764 -30.07309,33.31132 -7.85956,2.77406 -24.54407,3.48745 -32.77627,1.40143 z m 97.357,-0.42241 c -8.6765,-1.83715 -19.67124,-6.26509 -25.02854,-10.07982 l -2.98695,-2.1269 6.25775,-9.0514 c 3.44176,-4.97827 6.78394,-9.25434 7.42694,-9.50238 0.6431,-0.24803 2.2606,0.26411 3.5944,1.13809 4.3941,2.87911 18.49,7.48202 24.9203,8.13756 7.1995,0.73395 13.6609,-0.64066 16.2,-3.4464 0.9359,-1.03411 1.9643,-3.49906 2.2854,-5.47769 0.5101,-3.14374 0.1527,-4.0286 -2.8342,-7.01547 -2.7867,-2.78666 -5.9039,-4.19861 -16.8765,-7.64426 -21.5664,-6.77231 -30.52876,-12.00155 -35.72821,-20.84623 C 992.30283,813.80591 992,812.29256 992,804.29077 c 0,-7.47034 0.40649,-9.82573 2.39163,-13.8583 5.19789,-10.55884 14.92097,-16.50533 31.26347,-19.12022 8.5742,-1.37192 10.8132,-1.3815 20,-0.0855 5.6897,0.80263 13.2699,2.38159 16.8449,3.5088 7.439,2.34555 14.5985,6.23755 14.2909,7.7688 -0.115,0.57261 -2.9561,5.3343 -6.3135,10.58153 l -6.1044,9.54042 -6.1865,-2.87919 c -12.4056,-5.77358 -24.0587,-7.39167 -31.5747,-4.38433 -7.0943,2.83857 -7.815,10.83057 -1.3194,14.63109 1.4892,0.87131 8.3326,3.25335 15.2076,5.29342 21.9633,6.51734 32.3458,12.62053 37.3153,21.93531 1.7628,3.30433 2.1717,5.75814 2.1775,13.06821 0.01,7.81861 -0.3565,9.74054 -2.7633,14.64151 -3.0849,6.28183 -9.3639,12.611 -15.7361,15.86186 -9.8966,5.04889 -28.4838,6.3401 -43.9934,3.05613 z m -927,-55.0595 0,-55 12.98157,0 12.98157,0 0.26843,23.25 0.26843,23.25 25.5,0 25.5,0 0.26843,-23.25 0.26843,-23.25 12.48157,0 12.48157,0 0,55 0,55 -12.4805,0 -12.4805,0 -0.2695,-21.75 -0.2695,-21.75 -25.5,0 -25.5,0 -0.2695,21.75 -0.26951,21.75 -12.98049,0 -12.9805,0 0,-55 z m 112,44.5 0,-10.5 43,0 43,0 0,10.5 0,10.5 -43,0 -43,0 0,-10.5 z m 89.15733,9.71196 c 0.18847,-0.46424 13.14359,-25.24656 28.78916,-55.07182 23.66379,-45.11046 28.76802,-54.17835 30.35889,-53.93394 1.41425,0.21727 9.41153,14.56188 30.7021,55.06995 l 28.78971,54.77615 -14.49987,-0.27615 -14.49988,-0.27615 -6.9783,-15.5 c -13.90599,-30.88758 -22.5646,-48.5 -23.84354,-48.5 -1.34025,0 -11.64314,21.05932 -23.72775,48.5 l -6.82605,15.5 -14.30357,0.27802 c -7.86697,0.15291 -14.14937,-0.10181 -13.9609,-0.56606 z M 413.755,874.59517 c -5.45842,-10.20592 -51.55156,-98.69194 -52.08833,-99.99513 -0.18334,-0.4451 6.00793,-0.80927 13.75838,-0.80927 l 14.09171,0 4.08639,8.75 c 2.24751,4.8125 8.31017,17.975 13.47256,29.25 11.33846,24.76393 12.65002,27.33696 13.8912,27.25181 0.5318,-0.0365 3.06273,-4.94556 5.62429,-10.90907 2.56156,-5.96351 9.14507,-20.51774 14.63002,-32.34274 l 9.97263,-21.5 14.55167,-0.27615 14.55167,-0.27616 -28.78971,54.77616 c -21.9752,41.81066 -29.26151,54.8482 -30.78296,55.08055 -1.59985,0.24432 -2.97542,-1.53201 -6.96952,-9 z M 522.5,862.7674 l 0,-21.02337 -20.35409,-33.97663 -20.3541,-33.97663 14.6041,0.005 14.60409,0.005 9.5,16.70314 c 5.225,9.18672 10.34487,18.63432 11.37749,20.99465 1.03261,2.36043 2.48864,4.29161 3.2356,4.29161 0.74697,0 2.77506,-2.8125 4.50688,-6.25 1.73182,-3.4375 6.94977,-12.8875 11.59544,-21 l 8.44668,-14.75 14.47797,0 c 7.96289,0 14.29167,0.3375 14.06396,0.75 -0.22771,0.4125 -8.9697,14.925 -19.42665,32.25 -10.45696,17.325 -19.52221,32.48292 -20.14501,33.68426 -0.73563,1.419 -1.13236,9.38949 -1.13236,22.75 l 0,20.56574 -12.5,0 -12.5,0 0,-21.02337 z m 103,-33.97663 0,-55 12.5,0 12.5,0 0,55 0,55 -12.5,0 -12.5,0 0,-55 z m 34,0 0,-55 2.52263,0 c 1.8211,0 12.57846,8.18905 38.68187,29.44662 19.88758,16.19563 36.5274,29.21908 36.97737,28.94098 0.44997,-0.2781 0.81813,-13.52908 0.81813,-29.44662 l 0,-28.94098 12.5,0 12.5,0 0,55 0,55 -2.51125,0 c -1.84232,0 -11.98701,-8.05769 -38.08493,-30.25 -19.56553,-16.6375 -36.09796,-30.25 -36.73875,-30.25 -0.85525,0 -1.23545,8.04421 -1.42973,30.25 l -0.26467,30.25 -12.48533,0 -12.48534,0 0,-55 z m 113,30 0,-25 12.47254,0 12.47255,0 0.27745,14.25 0.27746,14.25 12.57137,-0.10074 c 20.67502,-0.16568 29.91796,-4.53829 36.08858,-17.0726 3.08154,-6.2595 3.33925,-7.5215 3.32973,-16.30563 -0.009,-8.16936 -0.38296,-10.31889 -2.63516,-15.14104 -3.219,-6.89213 -8.87364,-13.30518 -14.28631,-16.20241 -3.85808,-2.06511 -5.52734,-2.19344 -32.31821,-2.4847 l -28.25,-0.30712 0,-10.44288 0,-10.44288 26.54216,0 c 35.25914,0 44.18754,1.83258 57.30355,11.76174 12.81602,9.70206 20.11956,25.39785 20.11956,43.23826 0,17.84041 -7.30354,33.5362 -20.11956,43.23826 -13.11601,9.92916 -22.04441,11.76174 -57.30355,11.76174 l -26.54216,0 0,-25 z m 347.7604,-19.25 -0.2604,-44.25 -17.25,-0.27361 -17.25,-0.27362 0,-10.47638 0,-10.47639 47.5,0 47.5,0 0,10.47639 0,10.47638 -17.25,0.27362 -17.25,0.27361 -0.2604,44.25 -0.2604,44.25 -12.4792,0 -12.4792,0 -0.2604,-44.25 z m 68.2396,-10.75 0,-55 29.75,0.0174 c 39.0107,0.0228 46.5123,1.53553 57.2031,11.53552 6.5544,6.13086 10.0592,13.56495 10.7573,22.81743 1.0465,13.871 -3.6924,25.65222 -13.2046,32.82771 -2.7469,2.07204 -5.1489,4.23123 -5.3379,4.7982 -0.2914,0.87442 7.4,12.2029 22.5777,33.25378 l 3.4247,4.75 -15.0342,0 -15.0343,0 -11.1802,-16.52738 -11.1802,-16.52738 -13.6207,0.27738 -13.6207,0.27738 -0.2748,16.25 -0.2747,16.25 -12.4753,0 -12.4752,0 0,-55 z m 59.4775,0.88462 c 15.0344,-4.17391 16.8825,-25.80322 2.7458,-32.13687 -4.1478,-1.85837 -6.6727,-2.12421 -20.7233,-2.18197 l -16,-0.0658 -0.2758,16.46161 c -0.1517,9.05389 -0.053,17.04139 0.2186,17.75 0.6354,1.65572 28.1894,1.79578 34.0347,0.173 z m 71.5225,33.1103 0,-21.00508 -20,-33.44036 c -11,-18.3922 -20,-33.68991 -20,-33.99492 0,-0.30501 6.4125,-0.55215 14.25,-0.54921 l 14.25,0.005 9.5,16.70314 c 5.225,9.18672 10.3449,18.63431 11.3775,20.99465 1.0326,2.36033 2.4886,4.29151 3.2356,4.29151 0.747,0 2.7751,-2.8125 4.5069,-6.25 1.7318,-3.4375 6.9497,-12.8875 11.5954,-21 l 8.4467,-14.75 14.478,0 c 7.9628,0 14.2916,0.3375 14.0639,0.75 -0.2277,0.4125 -8.9697,14.925 -19.4266,32.25 -10.457,17.325 -19.5222,32.48292 -20.145,33.68426 -0.7357,1.419 -1.1324,9.38949 -1.1324,22.75 l 0,20.56574 -12.5,0 -12.5,0 0,-21.00508 z m -1117,-33.49492 0,-9.5 36.5,0 36.5,0 0,9.5 0,9.5 -36.5,0 -36.5,0 0,-9.5 z m 0,-45 0,-10.5 43,0 43,0 0,10.5 0,10.5 -43,0 -43,0 0,-10.5 z"
         id="path3437"
         inkscape:connector-curvature="0" />
    </g>
  </g>
</svg>
